<svg width="74" height="74" viewBox="0 0 74 74" fill="none" xmlns="http://www.w3.org/2000/svg">
<path d="M19.9509 72.549C18.9352 72.4765 18.4999 71.751 18.4999 71.098C18.4999 70.4451 18.9352 69.647 19.9509 69.647H21.6921L23.6509 63.7706H23.5784C10.6646 62.9 4.71563 53.3961 4.49798 44.3274C4.28033 35.6216 9.93916 25.5372 22.7078 24.1588H22.8529L19.6607 20.9667C17.9921 19.298 17.9921 16.5412 19.6607 14.8725L27.6411 6.89215C28.4392 6.09411 29.5274 5.65881 30.6882 5.65881C31.849 5.65881 32.9372 6.09411 33.7352 6.89215L55.7176 28.8745C56.5156 29.6725 56.9509 30.7608 56.9509 31.9216C56.9509 33.0823 56.5156 34.1706 55.7176 34.9686L47.7372 42.949C46.9392 43.7471 45.8509 44.1823 44.6901 44.1823C43.5294 44.1823 42.4411 43.7471 41.6431 42.949L36.2745 37.5078H36.2019C35.1862 38.0157 33.9529 38.3059 32.7196 38.3059C30.2529 38.3059 27.8588 37.2902 26.3352 35.4765H24.2313C19.5882 35.4765 15.8156 39.249 15.8156 43.8921C15.8156 48.5353 19.5882 52.3804 24.2313 52.3804H68.0509C68.849 52.3804 69.5019 53.0333 69.5019 53.8314C69.5019 54.6294 68.849 55.2823 68.0509 55.2823H60.9411V55.3549C60.2156 60.1431 56.0078 63.7706 51.147 63.7706H44.6176L46.4313 69.647H48.1725C49.1882 69.7196 49.6235 70.4451 49.6235 71.098C49.6235 71.751 49.1882 72.549 48.1725 72.549H19.9509ZM24.8117 69.647H43.4568L38.7411 55.2823H29.5274L24.8117 69.647ZM43.6019 60.8686H51.0745C54.3392 60.8686 57.2411 58.5471 57.9666 55.3549V55.2823H41.7882L43.6019 60.8686ZM24.2313 26.9882C19.7333 26.9882 15.4529 28.7294 12.2607 31.9216C9.06857 35.1137 7.25484 39.3941 7.25484 43.8921C7.25484 53.251 14.8725 60.7961 24.1588 60.7961H24.5215L26.3352 55.2098H24.1588C17.9196 55.2098 12.7686 50.1314 12.7686 43.8196C12.7686 40.7725 13.9294 37.9431 16.1058 35.7667C18.2823 33.5902 21.1117 32.4294 24.1588 32.4294H24.5215V32.3569C23.9411 30.6882 23.9411 28.6569 24.5215 26.9882V26.9157L24.2313 26.9882ZM32.5745 21.2569C34.896 21.2569 37.145 22.2 38.8137 23.8686C40.4098 25.4647 41.2078 27.4961 41.2078 29.8176C41.2078 32.0667 40.3372 34.1706 38.7411 35.8392L38.6686 35.9118L43.747 40.9902C44.0372 41.2804 44.3274 41.4255 44.6901 41.4255C45.0529 41.4255 45.4156 41.2804 45.6333 40.9902L53.6137 33.0098C53.8313 32.7921 54.049 32.4294 54.049 32.0667C54.049 31.7039 53.9039 31.3412 53.6137 31.1235L31.7039 8.92352C31.4137 8.63332 31.1235 8.48823 30.7607 8.48823C30.398 8.48823 30.0352 8.63332 29.8176 8.92352L21.8372 16.9039C21.3294 17.4118 21.3294 18.2823 21.8372 18.8627L26.698 23.7235L26.7705 23.651C28.2941 22.1274 30.3254 21.2569 32.5745 21.2569ZM32.7196 24.1588C29.5999 24.1588 27.1333 26.698 27.1333 29.7451C27.1333 32.7921 29.6725 35.3314 32.7196 35.3314C35.8392 35.3314 38.3058 32.7921 38.3058 29.7451C38.3058 26.698 35.7666 24.1588 32.7196 24.1588Z" fill="#1A12E6"/>
<path d="M34.098 63.7706C33.2999 63.7706 32.647 63.1177 32.647 62.3196C32.647 61.5216 33.2999 60.8687 34.098 60.8687C34.896 60.8687 35.5489 61.5216 35.5489 62.3196C35.5489 63.1177 34.896 63.7706 34.098 63.7706Z" fill="#1A12E6"/>
<path d="M14.5097 9.72152C14.0744 9.14112 14.147 8.34308 14.6548 7.83524L20.6764 1.81367C20.9666 1.59603 21.3293 1.45093 21.6921 1.45093C21.9822 1.45093 22.2724 1.52348 22.5626 1.74112L28.5842 6.02152C28.0038 6.31171 27.3509 7.0372 26.7705 7.54505C26.6254 7.69014 26.4803 7.83524 26.3352 7.98034L21.8372 4.78818L17.5568 9.06857L20.7489 13.5666C20.6038 13.7117 20.4587 13.8568 20.3136 14.0019C19.7332 14.5098 19.0803 15.2352 18.7901 15.8156L14.5097 9.72152Z" fill="#FFE11E"/>
<path d="M53.6862 48.3901C53.3234 48.3901 52.9607 48.245 52.6705 47.9548L47.8097 43.094C47.8097 43.094 48.7528 42.1509 49.8411 41.0627L53.6862 44.9078L57.6038 40.9901L53.7587 37.145C54.992 35.9117 55.645 35.2587 55.7901 35.1136L60.6509 39.9744C61.2313 40.5548 61.2313 41.498 60.6509 42.0058L54.6293 48.0274C54.4842 48.245 54.1215 48.3901 53.6862 48.3901Z" fill="#FFE11E"/>
</svg>
