<svg width="20" height="20" viewBox="0 0 20 20" fill="none" xmlns="http://www.w3.org/2000/svg">
<path d="M11.4636 13.2204C9.08273 12.2444 7.23091 10.2924 6.26091 7.98545L8.99455 5.23491L3.96818 0.0887273L1.41091 2.66182C0.529091 3.54909 0 4.79127 0 6.12218C0 11.9782 7.49545 19.52 13.3155 19.52C14.55 19.52 15.7845 18.9876 16.7545 18.1004L19.3118 15.5273L14.2855 10.4698L11.4636 13.2204ZM15.6082 16.9469C14.9909 17.568 14.1973 17.8342 13.3155 17.8342C8.28909 17.8342 1.58727 11.0909 1.58727 6.03346C1.58727 5.14618 1.94 4.34764 2.46909 3.72655L3.88 2.30691L6.70182 5.14618L4.32091 7.54182L4.49727 8.07418C5.64364 11.2684 8.20091 13.7527 11.2873 14.9062L11.8164 15.0836L14.1973 12.688L17.0191 15.5273L15.6082 16.9469ZM11.2873 1.59709V0C15.7845 0 19.4 3.63782 19.4 8.16291H17.8127C17.8127 4.52509 14.9027 1.59709 11.2873 1.59709ZM11.2873 4.88V3.28291C13.9327 3.28291 16.1373 5.50109 16.1373 8.16291H14.55C14.55 6.29964 13.1391 4.88 11.2873 4.88Z" fill="#1A12E6"/>
</svg>
