<svg width="54" height="54" viewBox="0 0 54 54" fill="none" xmlns="http://www.w3.org/2000/svg">
<path d="M19.8 51.2001C15.1 51.2001 11.3 47.3 11.3 42.6V36.9001H11C5.9 36.2001 2 31.7 2 26.5V4.20005H6.6V2.80005H9V7.90005H6.7V6.50005H4.4V25.3H20.7V6.50005H18.4V7.90005H16V2.80005H18.3V4.20005H23V26.6C23 31.8 19.1 36.3 14 37H13.7V42.7001C13.7 46.2001 16.5 49 19.9 49H23.6C27 49 29.8 46.2001 29.8 42.7001V21.7001C29.8 16.9001 33.6 13.1 38.3 13.1C43 13.1 46.8 17.0001 46.8 21.7001V26.6L47 26.7001C49.9 27.4001 52 30 52 33C52 36.6 49.1 39.4001 45.5 39.4001C41.9 39.4001 39.1 36.5 39.1 33C39.1 30 41.2 27.4001 44.1 26.7001L44.3 26.6V21.7001C44.3 18.2001 41.5 15.4 38.1 15.4C34.7 15.4 32 18.1 32 21.6V42.6C32 47.4 28.2 51.2001 23.5 51.2001H19.8ZM45.5 28.7001C43.2 28.7001 41.4 30.5 41.4 32.8C41.4 35.1 43.2 36.9001 45.5 36.9001C47.8 36.9001 49.6 35.1 49.6 32.8C49.6 30.6 47.8 28.7001 45.5 28.7001ZM4.5 28C5.2 31.8 8.6 34.6 12.5 34.6C16.4 34.6 19.7 31.8 20.5 28L20.6 27.6H4.5V28Z" fill="white"/>
<path d="M46.9 31.4H44.1V34.2H46.9V31.4Z" fill="white"/>
</svg>
