<svg width="20" height="20" viewBox="0 0 20 20" fill="none" xmlns="http://www.w3.org/2000/svg">
<path d="M11.8182 13.5455C9.36364 12.5455 7.45455 10.5455 6.45455 8.18182L9.27273 5.36364L4.09091 0.0909091L1.45455 2.72727C0.545455 3.63636 0 4.90909 0 6.27273C0 12.2727 7.72727 20 13.7273 20C15 20 16.2727 19.4545 17.2727 18.5455L19.9091 15.9091L14.7273 10.7273L11.8182 13.5455ZM16.0909 17.3636C15.4545 18 14.6364 18.2727 13.7273 18.2727C8.54546 18.2727 1.63636 11.3636 1.63636 6.18182C1.63636 5.27273 2 4.45455 2.54545 3.81818L4 2.36364L6.90909 5.27273L4.45455 7.72727L4.63636 8.27273C5.81818 11.5455 8.45455 14.0909 11.6364 15.2727L12.1818 15.4545L14.6364 13L17.5455 15.9091L16.0909 17.3636ZM11.6364 1.63636V0C16.2727 0 20 3.72727 20 8.36364H18.3636C18.3636 4.63636 15.3636 1.63636 11.6364 1.63636ZM11.6364 5V3.36364C14.3636 3.36364 16.6364 5.63636 16.6364 8.36364H15C15 6.45455 13.5455 5 11.6364 5Z" fill="white"/>
</svg>
