<svg width="74" height="74" viewBox="0 0 74 74" fill="none" xmlns="http://www.w3.org/2000/svg">
<path d="M60.2156 67.4706H54.4842V43.6746H51.5823V67.4706H45.1979C44.3999 67.4706 43.7469 68.1236 43.7469 68.9216C43.7469 69.7197 44.3999 70.3726 45.1979 70.3726H60.2881C61.0862 70.3726 61.7391 69.7197 61.7391 68.9216C61.6666 68.1236 61.0136 67.4706 60.2156 67.4706Z" fill="#1A12E6"/>
<path d="M68.196 3.62744H37.8706C36.6372 3.62744 35.6941 4.64313 35.6941 5.80391V25.9H38.5961V6.45685H67.5431V40.7725H38.5961V34.098H35.6941V41.498C35.6941 42.6588 36.6372 43.6745 37.8706 43.6745H68.196C69.3568 43.6745 70.3725 42.7314 70.3725 41.498V5.80391C70.3725 4.64313 69.3568 3.62744 68.196 3.62744Z" fill="#FFE11E"/>
<path d="M13.5666 70.2999C12.4784 70.2999 11.6078 69.4294 11.6078 68.3411V51.945H5.65877C4.57054 51.945 3.69995 51.0745 3.69995 49.9862V33.9529C3.69995 28.8019 7.90779 24.5215 13.1313 24.5215H18.2098V24.3764C14.8 23.1431 12.5509 19.8784 12.5509 16.2509C12.5509 11.4627 16.4686 7.54504 21.2568 7.54504C26.045 7.54504 29.9627 11.4627 29.9627 16.2509C29.9627 19.8784 27.7137 23.1431 24.3039 24.3764V24.5215H45.5607L57.8941 12.9862C58.1843 12.7686 58.4745 12.6235 58.8372 12.6235C59.1999 12.6235 59.5627 12.7686 59.8529 13.0588C60.1431 13.349 60.2156 13.7117 60.2156 14.0745C60.2156 14.4372 60.0705 14.7999 59.7803 15.0176L47.8098 26.3352V33.5176C47.8098 34.6058 46.9392 35.4764 45.8509 35.4764H30.4705V68.3411C30.4705 69.4294 29.5999 70.2999 28.5117 70.2999H13.5666V70.2999ZM21.0392 52.6705C21.8372 52.6705 22.4176 53.3235 22.4176 54.049V67.3254H27.496V32.4294H44.8352V27.496H13.1313C9.57642 27.496 6.67447 30.398 6.67447 33.9529V48.9705H11.7529V38.2333C11.7529 37.4352 12.4058 36.8548 13.1313 36.8548C13.9294 36.8548 14.5098 37.5078 14.5098 38.2333V67.3254H19.6607V54.049C19.6607 53.3235 20.2411 52.6705 21.0392 52.6705ZM21.1843 10.1568C17.847 10.1568 15.0901 12.9137 15.0901 16.2509C15.0901 19.5882 17.847 22.345 21.1843 22.345C24.5215 22.345 27.2784 19.5882 27.2784 16.2509C27.2784 12.9137 24.5941 10.1568 21.1843 10.1568Z" fill="#1A12E6"/>
</svg>
