<svg width="44" height="44" viewBox="0 0 44 44" fill="none" xmlns="http://www.w3.org/2000/svg">
<path d="M22 44C9.86036 44 0 34.1396 0 22C0 9.86036 9.86036 0 22 0C34.1396 0 44 9.86036 44 22C44 34.1396 34.1892 44 22 44Z" fill="url(#paint0_linear_49_3627)"/>
<path d="M35.0316 18.0856L34.982 17.0451C34.8829 14.9144 33.1487 13.1802 31.018 13.0811L24.973 12.8334C22.991 12.7343 21.009 12.7343 19.0766 12.8334L13.0811 13.0316C10.9009 13.0811 9.1667 14.8153 9.0676 16.9955L9.01805 18.1352C8.91895 20.7117 8.91895 23.3379 9.01805 25.9144L9.0676 27.0541C9.1667 29.2343 10.9009 30.9189 13.0811 31.018L19.3739 31.2162C21.1577 31.2658 22.9415 31.2658 24.7748 31.2162L31.0676 31.018C33.2478 30.9685 34.982 29.2343 35.0811 27.0541L35.1307 25.9144C35.1802 23.2883 35.1802 20.7117 35.0316 18.0856ZM19.3739 25.8153V18.0361L26.0631 22L19.3739 25.8153Z" fill="white"/>
<defs>
<linearGradient id="paint0_linear_49_3627" x1="22.0173" y1="44.0038" x2="22.0173" y2="0" gradientUnits="userSpaceOnUse">
<stop stop-color="#FF0000"/>
<stop offset="1" stop-color="#FF3333"/>
</linearGradient>
</defs>
</svg>
