<svg width="74" height="74" viewBox="0 0 74 74" fill="none" xmlns="http://www.w3.org/2000/svg">
<path d="M73.2745 68.5587L72.1862 54.1215C71.9686 51.4372 70.0823 49.2607 67.5431 48.6078V19.7332C67.5431 18.8627 66.8176 18.2097 66.0196 18.2097H34.098C33.2274 18.2097 32.5745 18.9352 32.5745 19.7332C32.5745 20.5313 33.3 21.2568 34.098 21.2568H64.3509V48.6078C61.8117 49.2607 59.9254 51.4372 59.7078 54.1215L58.6196 68.5587C58.547 69.4293 59.2725 70.2274 60.1431 70.2274H71.6784C72.6215 70.2999 73.347 69.4293 73.2745 68.5587ZM61.8843 67.1078L62.8274 54.4117C62.9725 52.8156 64.2784 51.5097 65.947 51.5097C67.5431 51.5097 68.9215 52.743 69.0666 54.4117L70.0823 67.1803L61.8843 67.1078Z" fill="#FFE11E"/>
<path d="M58.6921 21.2569L34.098 32.4294L6.09409 19.7334L34.098 7.03728L58.6921 18.1373H65.947C66.2372 18.1373 66.4549 18.2098 66.6725 18.2824C66.6725 18.2098 34.751 3.84512 34.751 3.84512C34.3157 3.62747 33.8804 3.62747 33.4451 3.84512L1.6686 18.2824C1.08821 18.5 0.725464 19.0804 0.725464 19.7334C0.725464 20.3137 1.08821 20.8941 1.6686 21.1843L10.9549 25.3922V43.4569C10.9549 45.1981 12.2608 47.7373 18.3549 49.6235C26.6255 52.2353 41.498 52.2353 49.8411 49.6235C56.0078 47.7373 57.2412 45.2706 57.2412 43.4569V25.3196L64.351 22.1275V21.2569H58.6921ZM54.1941 43.3843C54.1941 44.0373 52.8157 45.3432 48.9706 46.5765C44.9804 47.7373 39.7568 48.3902 34.098 48.3902C28.4392 48.3902 23.2157 47.7373 19.298 46.5039C15.4529 45.3432 14.0745 43.9647 14.0745 43.3118V26.7706L33.4451 35.549C33.6627 35.6216 33.8804 35.6941 34.098 35.6941C34.3157 35.6941 34.5333 35.6216 34.751 35.549L54.1215 26.7706V43.3843H54.1941Z" fill="white"/>
<path d="M13.2765 65.4392L9.86668 56.8059H6.96472L12.551 70.2275H14.002L19.6608 56.8059H16.6863L13.2765 65.4392Z" fill="white"/>
<path d="M25.1019 56.8059H22.4176V69.9373H25.1019V56.8059Z" fill="white"/>
<path d="M33.9529 61.8117C33.1548 61.5215 32.647 61.3039 32.4293 61.0862C32.1391 60.8686 32.0666 60.5784 32.0666 60.2882C32.0666 59.9254 32.2117 59.5627 32.5019 59.2725C32.7921 58.9823 33.2274 58.8372 33.8078 58.8372C34.6058 58.8372 35.3313 59.1999 35.9117 59.9254L35.9842 59.998L37.4352 58.1117L37.2176 58.0392C36.2019 57.0235 34.9685 56.5156 33.445 56.5156C32.0666 56.5156 31.0509 56.8784 30.2529 57.6764C29.5274 58.4019 29.1646 59.345 29.1646 60.4333C29.1646 61.449 29.5274 62.3195 30.2529 62.8999C30.7607 63.3352 31.4862 63.698 32.4293 64.0607C33.445 64.4235 34.098 64.7137 34.3882 65.0039C34.6784 65.2941 34.896 65.6568 34.896 66.0921C34.896 66.5999 34.6784 67.0352 34.3882 67.3254C34.0254 67.6156 33.5901 67.8333 33.0097 67.8333C32.5019 67.8333 31.994 67.6882 31.4862 67.398C30.9783 67.1078 30.6156 66.6725 30.3254 66.0921V66.0196L28.5842 67.6882V67.7607C29.745 69.4294 31.2685 70.2274 33.1548 70.2274C34.5333 70.2274 35.6215 69.7921 36.4921 68.9941C37.3627 68.196 37.798 67.1078 37.798 65.8745C37.798 64.7137 37.4352 63.7705 36.6372 63.1176C36.1293 62.6823 35.2587 62.247 33.9529 61.8117Z" fill="white"/>
<path d="M47.5196 56.5156H45.4882L39.7568 69.9372H42.6588L43.8196 67.1803H48.9706L50.1313 69.9372H53.0333L47.5196 56.5156ZM44.6902 65.0039L46.4313 60.5784L48.1725 65.0039H44.6902Z" fill="white"/>
</svg>
