<svg width="29" height="33" viewBox="0 0 29 33" fill="none" xmlns="http://www.w3.org/2000/svg">
<path d="M17.6 0H11.2C5 0 0 5 0 11.2V16C0 20.3 2.5 24.3 6.4 26.1V31.5C6.4 32 7 32.2 7.3 31.9L11.9 27.3H17.5C23.7 27.3 28.7 22.3 28.7 16.1V11.3C28.8 5 23.8 0 17.6 0ZM21.8 21L20.2 22.6C18.5 24.3 14 22.4 10.1 18.4C6.2 14.4 4.5 9.9 6.1 8.2L7.7 6.6C8.3 6 9.3 6 10 6.6L12.3 9C13.1 9.8 12.8 11.3 11.7 11.6C10.9 11.8 10.4 12.7 10.7 13.4C11.1 15.2 13.3 17.4 15 17.8C15.8 18 16.6 17.6 16.9 16.8C17.3 15.7 18.7 15.4 19.5 16.2L21.8 18.6C22.4 19.3 22.4 20.3 21.8 21ZM15.8 7.6C15.6 7.6 15.5 7.6 15.3 7.6C15 7.6 14.7 7.4 14.7 7.1C14.7 6.8 14.9 6.5 15.2 6.5C15.4 6.5 15.6 6.5 15.8 6.5C18.7 6.5 21.1 8.9 21.1 11.8C21.1 12 21.1 12.2 21.1 12.4C21.1 12.7 20.8 12.9 20.5 12.9C20.2 12.9 20 12.6 20 12.3C20 12.1 20 12 20 11.8C20.1 9.5 18.2 7.6 15.8 7.6ZM19 11.9C19 12.2 18.8 12.4 18.5 12.4C18.2 12.4 18 12.2 18 11.9C18 10.7 17 9.8 15.9 9.8C15.6 9.8 15.4 9.6 15.4 9.3C15.4 9 15.6 8.8 15.9 8.8C17.6 8.7 19 10.1 19 11.9ZM23.1 13.6C23 13.9 22.7 14.1 22.4 14C22.1 13.9 22 13.6 22 13.4C22.1 12.9 22.2 12.4 22.2 11.9C22.2 8.4 19.3 5.5 15.8 5.5C15.6 5.5 15.5 5.5 15.3 5.5C15 5.5 14.7 5.3 14.7 5C14.7 4.7 14.9 4.4 15.2 4.4C15.4 4.4 15.6 4.4 15.8 4.4C19.9 4.4 23.3 7.8 23.3 11.9C23.3 12.4 23.2 13 23.1 13.6Z" fill="white"/>
</svg>
