<svg width="23" height="22" viewBox="0 0 23 22" fill="none" xmlns="http://www.w3.org/2000/svg">
<path fill-rule="evenodd" clip-rule="evenodd" d="M20.0617 10.945C20.0617 15.455 16.3767 19.085 11.9217 19.085C10.4367 19.085 9.00669 18.7 7.79669 17.93L7.52169 17.765L4.44169 18.59L5.26669 15.565L4.99169 15.235C4.16669 13.915 3.72668 12.43 3.72668 10.89C3.78168 6.435 7.41169 2.75 11.9217 2.75C14.1217 2.75 16.1567 3.575 17.6967 5.115C19.2367 6.71 20.0617 8.745 20.0617 10.945Z" fill="#2CB742"/>
<path fill-rule="evenodd" clip-rule="evenodd" d="M16.8717 13.2551C16.8167 13.1451 16.6517 13.0901 16.3767 12.9801C16.1567 12.8701 14.9467 12.2651 14.7267 12.2101C14.5067 12.1551 14.3417 12.1001 14.1767 12.3201C14.0117 12.5401 13.5167 13.1451 13.4067 13.2551C13.2417 13.4201 13.1317 13.4201 12.8567 13.3101C12.6367 13.2001 11.8117 12.9251 10.8767 12.1001C10.1617 11.4401 9.66673 10.6701 9.50173 10.3951C9.33673 10.1751 9.50173 10.0101 9.61173 9.9001C9.88673 9.5701 10.1617 9.2401 10.2167 9.0751C10.2717 8.9101 10.2717 8.7451 10.2167 8.6351C10.1617 8.5251 9.66673 7.3151 9.44673 6.8201C9.22673 6.3251 9.06173 6.3801 8.89673 6.3801C8.73173 6.3801 8.56673 6.3801 8.40173 6.3801C8.23673 6.3801 7.96173 6.4351 7.74173 6.7101C7.52173 6.9301 6.86173 7.5351 6.86173 8.7451C6.86173 9.9551 7.74173 11.1101 7.85173 11.2751C7.96173 11.4401 9.55673 13.9151 12.0317 14.9601C12.6367 15.2351 13.0767 15.3451 13.4067 15.4551C14.0117 15.6201 14.5067 15.6201 14.9467 15.5651C15.4417 15.5101 16.3767 14.9601 16.5967 14.4101C16.9267 13.8601 16.9267 13.3651 16.8717 13.2551ZM16.8717 13.2551C16.8167 13.1451 16.6517 13.0901 16.3767 12.9801C16.1567 12.8701 14.9467 12.2651 14.7267 12.2101C14.5067 12.1551 14.3417 12.1001 14.1767 12.3201C14.0117 12.5401 13.5167 13.1451 13.4067 13.2551C13.2417 13.4201 13.1317 13.4201 12.8567 13.3101C12.6367 13.2001 11.8117 12.9251 10.8767 12.1001C10.1617 11.4401 9.66673 10.6701 9.50173 10.3951C9.33673 10.1751 9.50173 10.0101 9.61173 9.9001C9.88673 9.5701 10.1617 9.2401 10.2167 9.0751C10.2717 8.9101 10.2717 8.7451 10.2167 8.6351C10.1617 8.5251 9.66673 7.3151 9.44673 6.8201C9.22673 6.3251 9.06173 6.3801 8.89673 6.3801C8.73173 6.3801 8.56673 6.3801 8.40173 6.3801C8.23673 6.3801 7.96173 6.4351 7.74173 6.7101C7.52173 6.9301 6.86173 7.5351 6.86173 8.7451C6.86173 9.9551 7.74173 11.1101 7.85173 11.2751C7.96173 11.4401 9.55673 13.9151 12.0317 14.9601C12.6367 15.2351 13.0767 15.3451 13.4067 15.4551C14.0117 15.6201 14.5067 15.6201 14.9467 15.5651C15.4417 15.5101 16.3767 14.9601 16.5967 14.4101C16.9267 13.8601 16.9267 13.3651 16.8717 13.2551ZM18.8517 3.9601C16.9817 2.1451 14.5067 1.1001 11.9217 1.1001C6.53173 1.1001 2.13173 5.5001 2.13173 10.8901C2.13173 12.5951 2.57173 14.3001 3.45173 15.7851L2.02173 20.9001L7.24673 19.5251C8.67673 20.2951 10.2717 20.7351 11.9217 20.7351C17.3117 20.7351 21.7117 16.3351 21.7117 10.9451C21.7117 8.3051 20.7217 5.8301 18.8517 3.9601ZM11.9217 19.0851C10.4367 19.0851 9.00673 18.7001 7.74173 17.9301L7.46673 17.7651L4.38673 18.5901L5.21173 15.5651L4.99173 15.2351C4.16673 13.9151 3.72673 12.4301 3.72673 10.8901C3.78173 6.4351 7.41173 2.7501 11.9217 2.7501C14.1217 2.7501 16.1567 3.5751 17.6967 5.1151C19.2367 6.6551 20.0617 8.6901 20.0617 10.8901C20.0617 15.4001 16.3767 19.0851 11.9217 19.0851ZM16.3767 12.9801C16.1567 12.8701 14.9467 12.2651 14.7267 12.2101C14.5067 12.1551 14.3417 12.1001 14.1767 12.3201C14.0117 12.5401 13.5167 13.1451 13.4067 13.2551C13.2417 13.4201 13.1317 13.4201 12.8567 13.3101C12.6367 13.2001 11.8117 12.9251 10.8767 12.1001C10.1617 11.4401 9.66673 10.6701 9.50173 10.3951C9.33673 10.1751 9.50173 10.0101 9.61173 9.9001C9.88673 9.5701 10.1617 9.2401 10.2167 9.0751C10.2717 8.9101 10.2717 8.7451 10.2167 8.6351C10.1617 8.5251 9.66673 7.3151 9.44673 6.8201C9.22673 6.3251 9.06173 6.3801 8.89673 6.3801C8.73173 6.3801 8.56673 6.3801 8.40173 6.3801C8.23673 6.3801 7.96173 6.4351 7.74173 6.7101C7.52173 6.9301 6.86173 7.5351 6.86173 8.7451C6.86173 9.9551 7.74173 11.1101 7.85173 11.2751C7.96173 11.4401 9.55673 13.9151 12.0317 14.9601C12.6367 15.2351 13.0767 15.3451 13.4067 15.4551C14.0117 15.6201 14.5067 15.6201 14.9467 15.5651C15.4417 15.5101 16.3767 14.9601 16.5967 14.4101C16.8167 13.8601 16.8167 13.3651 16.7617 13.2551C16.8167 13.1451 16.6517 13.0901 16.3767 12.9801Z" fill="white"/>
</svg>
