<svg width="94" height="114" viewBox="0 0 94 114" fill="none" xmlns="http://www.w3.org/2000/svg">
<path opacity="0.3" d="M82.4065 26.7372C82.4065 33.3728 80.3817 39.0814 76.332 43.8629C72.2823 48.5957 66.4274 52.0355 58.7671 54.1823V54.6214C76.6248 56.8658 85.5536 65.3067 85.5536 79.9441C85.5536 89.8975 81.6015 97.7285 73.6973 103.437C65.8419 109.146 54.9126 112 40.9095 112C35.1521 112 29.8095 111.585 24.8816 110.756C20.0024 109.926 14.7086 108.414 9 106.218V82.2129C13.684 84.6037 18.4411 86.3846 23.2715 87.5556C28.1506 88.6778 32.6394 89.2389 36.7379 89.2389C43.0807 89.2389 47.6915 88.3606 50.5702 86.6041C53.4977 84.7988 54.9614 81.9933 54.9614 78.1876C54.9614 75.2601 54.2051 73.0157 52.6926 71.4544C51.1801 69.8443 48.7405 68.6489 45.3739 67.8683C42.0073 67.0388 37.6161 66.6241 32.2003 66.6241H25.6134V44.8876H32.3466C47.0328 44.8876 54.3759 41.1306 54.3759 33.6168C54.3759 30.7869 53.2781 28.6888 51.0825 27.3227C48.9357 25.9565 46.0326 25.2735 42.3733 25.2735C35.5425 25.2735 28.4677 27.5666 21.149 32.153L9.14637 12.8317C14.8062 8.92837 20.5879 6.14726 26.4917 4.48836C32.4442 2.82945 39.2506 2 46.9108 2C57.9865 2 66.6713 4.19561 72.9654 8.58683C79.2595 12.978 82.4065 19.0282 82.4065 26.7372Z" fill="white"/>
</svg>
