<svg width="64" height="64" viewBox="0 0 64 64" fill="none" xmlns="http://www.w3.org/2000/svg">
<path d="M64 10.6671H0V53.3329H64V10.6671Z" fill="#F0F0F0"/>
<path d="M64 10.6671H0V24.889H64V10.6671Z" fill="#FF9811"/>
<path d="M64 39.111H0V53.3328H64V39.111Z" fill="#6DA544"/>
<path d="M31.9999 37.4869C35.0303 37.4869 37.4869 35.0303 37.4869 31.9999C37.4869 28.9696 35.0303 26.5129 31.9999 26.5129C28.9696 26.5129 26.5129 28.9696 26.5129 31.9999C26.5129 35.0303 28.9696 37.4869 31.9999 37.4869Z" fill="#0052B4"/>
<path d="M32.0001 35.4293C33.894 35.4293 35.4293 33.894 35.4293 32.0001C35.4293 30.1061 33.894 28.5708 32.0001 28.5708C30.1061 28.5708 28.5708 30.1061 28.5708 32.0001C28.5708 33.894 30.1061 35.4293 32.0001 35.4293Z" fill="#F0F0F0"/>
<path d="M32 27.7683L33.058 30.1677L35.6648 29.8842L34.1158 32.0001L35.6648 34.1159L33.058 33.8324L32 36.2318L30.942 33.8324L28.3351 34.1159L29.8841 32.0001L28.3351 29.8842L30.942 30.1677L32 27.7683Z" fill="#0052B4"/>
</svg>
