<svg width="64" height="64" viewBox="0 0 64 64" fill="none" xmlns="http://www.w3.org/2000/svg">
<path d="M62.8964 52.965H1.1035C0.494124 52.965 0 52.4709 0 51.8615V12.1376C0 11.5282 0.494124 11.0341 1.1035 11.0341H62.8965C63.5059 11.0341 64 11.5282 64 12.1376V51.8615C63.9999 52.4711 63.5058 52.965 62.8964 52.965Z" fill="#73AF00"/>
<path d="M19.8625 11.0345H8.82751V52.9657H19.8625V11.0345Z" fill="#FF4B55"/>
<path d="M18.7586 15.8157L16.5518 17.6548H12.1379L9.93103 15.8157V13.9766L12.1379 12.1376H16.5518L18.7586 13.9766V15.8157Z" fill="#F5F5F5"/>
<path d="M18.7586 31.2639L16.5518 33.1032H12.1379L9.93103 31.2639V29.4249L12.1379 27.5858H16.5518L18.7586 29.4249V31.2639Z" fill="#73AF00"/>
<path d="M18.7586 23.5398L16.5518 25.3789H12.1379L9.93103 23.5398V21.7008L12.1379 19.8617H16.5518L18.7586 21.7008V23.5398Z" fill="#73AF00"/>
<path d="M18.7586 38.9881L16.5518 40.8272H12.1379L9.93103 38.9881V37.1492L12.1379 35.3099H16.5518L18.7586 37.1492V38.9881Z" fill="#73AF00"/>
<path d="M8.82764 16.5513L11.0345 18.7581L8.82764 20.965V16.5513Z" fill="#FFB400"/>
<path d="M19.862 20.965L17.6552 18.7581L19.862 16.5513V20.965Z" fill="#FFB400"/>
<path d="M8.82764 24.2754L11.0345 26.4823L8.82764 28.6891V24.2754Z" fill="#FFB400"/>
<path d="M19.862 28.6891L17.6552 26.4823L19.862 24.2754V28.6891Z" fill="#FFB400"/>
<path d="M8.82764 31.9995L11.0345 34.2064L8.82764 36.4133V31.9995Z" fill="#FFB400"/>
<path d="M19.862 36.4133L17.6552 34.2064L19.862 31.9995V36.4133Z" fill="#FFB400"/>
<path d="M8.82764 39.7236L11.0345 41.9305L8.82764 44.1374V39.7236Z" fill="#FFB400"/>
<path d="M19.862 44.1374L17.6552 41.9305L19.862 39.7236V44.1374Z" fill="#FFB400"/>
<path d="M8.82764 11.0341H11.0345L8.82764 13.2409V11.0341Z" fill="#FFB400"/>
<path d="M19.862 13.2409L17.6552 11.0341H19.862V13.2409Z" fill="#FFB400"/>
<path d="M14.896 19.8621H13.7925V25.3796H14.896V19.8621Z" fill="#FFB400"/>
<path d="M16.5512 22.0684H12.1375V23.1719H16.5512V22.0684Z" fill="#FF4B55"/>
<path d="M17.6551 20.7812L16.5518 19.8617V25.3789L17.6551 24.4593V20.7812Z" fill="#FFB400"/>
<path d="M11.0345 24.4593L12.1379 25.3789V19.8618L11.0345 20.7812V24.4593Z" fill="#FFB400"/>
<path d="M14.3448 12.1376H12.138L9.93103 13.9766V14.8962H14.3448V12.1376Z" fill="#FFB400"/>
<path d="M14.3447 17.6549H16.5517L18.7586 15.8157V14.8962H14.3447V17.6549Z" fill="#FFB400"/>
<path d="M14.3447 16.5513L12.1378 14.9027L14.3447 13.241L16.5517 14.9027L14.3447 16.5513Z" fill="#FF4B55"/>
<path d="M14.3447 16.5514L16.5517 14.9027L16.5431 14.8962H14.3447V16.5514Z" fill="#73AF00"/>
<path d="M14.3447 14.8962V13.241L12.1466 14.8962H14.3447Z" fill="#73AF00"/>
<path d="M16.5512 28.6896H12.1375V31.9999H16.5512V28.6896Z" fill="#FF4B55"/>
<path d="M17.6548 29.7921H16.5513V30.8956H17.6548V29.7921Z" fill="#FFB400"/>
<path d="M14.896 29.7921H13.7925V30.8956H14.896V29.7921Z" fill="#F5F5F5"/>
<path d="M14.896 36.4133H13.7925V37.5168H14.896V36.4133Z" fill="#FF4B55"/>
<path d="M16.5522 37.5172H15.4487V38.6207H16.5522V37.5172Z" fill="#FFB400"/>
<path d="M13.2409 37.5172H12.1375V38.6207H13.2409V37.5172Z" fill="#FFB400"/>
<path d="M14.896 38.6195H13.7925V39.723H14.896V38.6195Z" fill="#FF4B55"/>
<path d="M12.1385 29.7921H11.035V30.8956H12.1385V29.7921Z" fill="#FFB400"/>
<path d="M18.7586 46.7122L16.5518 48.5513H12.1379L9.93103 46.7122V44.8733L12.1379 43.0341H16.5518L18.7586 44.8733V46.7122Z" fill="#F5F5F5"/>
<path d="M14.3448 43.0341H12.138L9.93103 44.8732V45.7927H14.3448V43.0341Z" fill="#FFB400"/>
<path d="M14.3447 48.5513H16.5517L18.7586 46.7122V45.7927H14.3447V48.5513Z" fill="#FFB400"/>
<path d="M16.5517 46.3443L14.3447 47.4478L12.1378 46.3443V45.2409L14.3447 44.1375L16.5517 45.2409V46.3443Z" fill="#FF4B55"/>
<path d="M35.0012 17.0424C34.8837 16.9846 34.7773 17.1375 34.8727 17.2274C36.1215 18.4057 36.9106 20.0606 36.9106 21.9065C36.9106 25.5323 33.9961 28.4413 30.4123 28.4413C29.7508 28.4413 29.1137 28.3382 28.5127 28.1503C28.3882 28.1115 28.3076 28.2785 28.4148 28.353C29.4626 29.0813 30.7255 29.5167 32.1041 29.5167C35.7352 29.5167 38.7025 26.6073 38.7025 22.9288C38.7023 20.3436 37.185 18.116 35.0012 17.0424Z" fill="#F5F5F5"/>
<path d="M26.0216 21.2999L25.7517 22.0635L26.3867 22.5661C26.469 22.6312 26.4211 22.7635 26.3162 22.7607L25.5066 22.7399L25.2249 23.4991C25.1884 23.5975 25.0477 23.5927 25.018 23.4922L24.7876 22.7159L23.9784 22.6825C23.8735 22.6782 23.8346 22.543 23.921 22.4836L24.5882 22.0246L24.3699 21.2446C24.3416 21.1436 24.4581 21.0647 24.5414 21.1286L25.1841 21.6214L25.8585 21.1726C25.9455 21.1145 26.0565 21.201 26.0216 21.2999Z" fill="#F5F5F5"/>
<path d="M29.3009 22.9561L29.031 23.7197L29.666 24.2224C29.7483 24.2875 29.7004 24.4197 29.5955 24.417L28.7859 24.3961L28.5042 25.1554C28.4677 25.2537 28.327 25.249 28.2973 25.1485L28.0669 24.3721L27.2577 24.3387C27.1528 24.3345 27.1139 24.1992 27.2003 24.1399L27.8675 23.6809L27.6492 22.9009C27.6209 22.7999 27.7374 22.721 27.8207 22.7849L28.4634 23.2776L29.1378 22.8289C29.2249 22.7709 29.3358 22.8574 29.3009 22.9561Z" fill="#F5F5F5"/>
<path d="M29.2677 19.5442L28.9978 20.3079L29.6328 20.8105C29.7151 20.8756 29.6672 21.0079 29.5623 21.0051L28.7527 20.9842L28.471 21.7435C28.4345 21.8419 28.2938 21.8371 28.2641 21.7366L28.0337 20.9602L27.2245 20.9269C27.1196 20.9226 27.0807 20.7874 27.1671 20.728L27.8343 20.269L27.616 19.489C27.5877 19.388 27.7042 19.3091 27.7875 19.373L28.4302 19.8657L29.1046 19.417C29.1917 19.359 29.3027 19.4455 29.2677 19.5442Z" fill="#F5F5F5"/>
<path d="M29.3795 16.2512L29.1097 17.0148L29.7447 17.5174C29.8269 17.5825 29.779 17.7148 29.6742 17.712L28.8645 17.6912L28.5828 18.4504C28.5463 18.5488 28.4057 18.544 28.3759 18.4435L28.1455 17.6672L27.3363 17.6338C27.2314 17.6295 27.1925 17.4943 27.2789 17.4349L27.9462 16.9759L27.7278 16.1959C27.6995 16.0949 27.816 16.016 27.8993 16.0799L28.542 16.5727L29.2164 16.1239C29.3034 16.0658 29.4144 16.1523 29.3795 16.2512Z" fill="#F5F5F5"/>
<path d="M32.5927 17.9074L32.3228 18.671L32.9578 19.1737C33.04 19.2388 32.9922 19.371 32.8873 19.3683L32.0777 19.3474L31.7959 20.1067C31.7594 20.205 31.6188 20.2003 31.589 20.0998L31.3587 19.3234L30.5494 19.29C30.4445 19.2858 30.4057 19.1505 30.492 19.0912L31.1593 18.6322L30.9409 17.8522C30.9127 17.7512 31.0292 17.6723 31.1124 17.7362L31.7552 18.2289L32.4295 17.7802C32.5165 17.722 32.6275 17.8085 32.5927 17.9074Z" fill="#F5F5F5"/>
</svg>
