<svg width="64" height="64" viewBox="0 0 64 64" fill="none" xmlns="http://www.w3.org/2000/svg">
<path d="M62.8964 52.9655H1.1035C0.494124 52.9655 0 52.4714 0 51.862V12.1379C0 11.5285 0.494124 11.0344 1.1035 11.0344H62.8965C63.5059 11.0344 64 11.5285 64 12.1379V51.862C63.9999 52.4715 63.5058 52.9655 62.8964 52.9655Z" fill="#FF4B55"/>
<path d="M37.2437 34.7452L45.6729 28.5604H35.2342L31.9999 18.6057L28.7655 28.5604H18.3269L26.756 34.7452L23.5466 44.6229L31.9916 38.5868L31.9999 38.5927L32.0081 38.5868L40.4531 44.6229L37.2437 34.7452ZM38.9346 30.7673L36.5255 32.5349L35.9511 30.7673H38.9346ZM29.3479 33.9097L30.369 30.7672H33.6308L34.6519 33.9097L31.9999 35.8557L29.3479 33.9097ZM31.9999 25.7479L32.9136 28.5604H31.0859L31.9999 25.7479ZM25.0651 30.7673H28.0486L27.4743 32.5349L25.0651 30.7673ZM27.717 38.9289L28.6298 36.1199L30.1186 37.2123L27.717 38.9289ZM35.3701 36.1199L36.2829 38.9289L33.8814 37.2124L35.3701 36.1199Z" fill="#5A8250"/>
</svg>
