<svg width="74" height="74" viewBox="0 0 74 74" fill="none" xmlns="http://www.w3.org/2000/svg">
<path d="M28.7295 24.0863H45.3432C47.3021 24.0138 47.3021 21.1844 45.3432 21.1118H28.7295C26.7707 21.1844 26.7707 24.0138 28.7295 24.0863Z" fill="#FFE11E"/>
<path d="M56.2981 67.4707L47.5922 52.4531C50.1314 45.3433 44.5451 37.5805 37 37.7256C29.455 37.6531 23.9412 45.4158 26.4079 52.4531L17.702 67.4707C17.4118 67.9786 17.4118 68.559 17.702 68.9943C17.9922 69.4295 18.5001 69.7197 19.0804 69.7197L23.0706 69.4295L24.8118 72.9845C25.0295 73.4923 25.6099 73.7825 26.1177 73.7825C26.6255 73.7825 27.1334 73.4923 27.4236 73.057L35.0412 59.8531C36.2746 60.0707 37.5804 60.0707 38.7412 59.8531L46.3589 73.057C46.6491 73.4923 47.1569 73.7825 47.6648 73.7825C48.2452 73.7825 48.753 73.4923 48.9706 72.9845L50.7118 69.4295L54.702 69.7197C56.0804 69.7923 56.8785 68.4864 56.2981 67.4707ZM26.3353 69.2119L25.3922 67.2531C25.102 66.7452 24.5216 66.3825 23.9412 66.455L21.7648 66.6001L28.0765 55.6452C29.1648 57.0962 30.6157 58.257 32.2118 59.055L26.3353 69.2119ZM34.9687 56.806C34.8961 56.806 34.8236 56.7335 34.751 56.7335C31.3412 55.7178 28.8746 52.5982 28.8746 48.8982C29.3099 38.0158 44.7628 38.0158 45.2706 48.8982C45.2706 52.5982 42.804 55.7178 39.3942 56.7335C39.3216 56.7335 39.2491 56.806 39.1765 56.806C37.7981 57.0962 36.2746 57.0962 34.9687 56.806ZM50.1314 66.3825C49.551 66.3099 48.9706 66.6727 48.6804 67.1805L47.7373 69.1394L41.8608 58.9099C43.5295 58.1119 44.9079 56.9511 45.9961 55.5001L52.3079 66.455L50.1314 66.3825Z" fill="#FFE11E"/>
<path d="M46.7942 30.9059C46.7942 30.1078 46.1413 29.3823 45.2707 29.3823H28.6569C27.8589 29.3823 27.1334 30.0353 27.1334 30.9059C27.1334 31.7039 27.7864 32.4294 28.6569 32.4294H45.2707C46.1413 32.3568 46.7942 31.7039 46.7942 30.9059Z" fill="white"/>
<path d="M57.8942 44.6902C57.8942 42.4411 59.7079 40.6274 61.9569 40.6274C62.7549 40.6274 63.4804 39.9745 63.4804 39.1039V19.8058C63.4804 19.0078 62.8275 18.2823 61.9569 18.2823C59.7079 18.2823 57.8942 16.4686 57.8942 14.2196C57.8942 13.4215 57.2412 12.696 56.3706 12.696H17.6295C16.8314 12.696 16.1059 13.349 16.1059 14.2196C16.1059 16.4686 14.2922 18.2823 12.0432 18.2823C11.2451 18.2823 10.5197 18.9353 10.5197 19.8058V39.1764C10.5197 39.9745 11.1726 40.7 12.0432 40.7C14.2922 40.7 16.1059 42.5137 16.1059 44.7627C16.1059 45.5607 16.7589 46.2862 17.6295 46.2862H26.1902C26.4804 45.198 26.8432 44.1823 27.4236 43.3117H19.0079C18.4275 40.6274 16.3236 38.5235 13.6393 37.9431V21.2568C16.3236 20.6764 18.4275 18.5725 19.0079 15.8882H55.0648C55.6451 18.5725 57.7491 20.6764 60.4334 21.2568V37.9431C57.7491 38.5235 55.6451 40.6274 55.0648 43.3117H46.6491C47.1569 44.2549 47.5922 45.2706 47.8824 46.2862H56.3706C57.2412 46.2137 57.8942 45.5607 57.8942 44.6902Z" fill="white"/>
<path d="M70.3726 4.49805H3.70005C2.90201 4.49805 2.17651 5.15099 2.17651 6.02158V53.0333C2.17651 53.8314 2.82946 54.5569 3.70005 54.5569H25.2471L26.4804 52.453C26.4079 52.1628 26.2628 51.8726 26.1902 51.5098H5.22358V7.47256H68.8491V51.5098H47.8824C47.8099 51.8 47.7373 52.1628 47.5922 52.453L48.8255 54.5569H70.3726C71.1706 54.5569 71.8961 53.9039 71.8961 53.0333V6.02158C71.8236 5.15099 71.1706 4.49805 70.3726 4.49805Z" fill="white"/>
</svg>
