<svg width="27" height="28" viewBox="0 0 27 28" fill="none" xmlns="http://www.w3.org/2000/svg">
<path d="M26.25 7.46766C26.25 9.46246 25.47 11.3378 24.0534 12.7482L10.5437 26.359C9.44494 27.453 8.0021 28 6.56019 28C5.12016 28 3.68013 27.4539 2.58416 26.3627C0.391303 24.1784 0.391303 20.6257 2.58416 18.4423L12.3438 8.7801C13.8091 7.33044 16.1379 7.28284 17.5376 8.67462C18.2211 9.35511 18.5811 10.2736 18.552 11.2622C18.523 12.2292 18.1226 13.1459 17.4242 13.8413L8.16241 23.0629C7.79584 23.4279 7.20333 23.4279 6.83676 23.0629C6.47019 22.698 6.47019 22.108 6.83676 21.743L16.0985 12.5214C16.4576 12.1639 16.6639 11.6972 16.6779 11.2071C16.692 10.7385 16.526 10.3072 16.212 9.99453C15.5416 9.32991 14.3997 9.37752 13.6666 10.1037L3.90794 19.7641C2.44822 21.2184 2.44822 23.5875 3.90982 25.0428C5.37235 26.4981 7.75084 26.4981 9.21337 25.0428L22.723 11.4321C23.7899 10.3698 24.375 8.964 24.375 7.46766C24.375 5.97133 23.7899 4.56554 22.7277 3.50793C21.6646 2.44939 20.2527 1.86692 18.7498 1.86692C17.247 1.86692 15.8351 2.44939 14.7719 3.50793L1.59789 16.5315C1.22945 16.8947 0.636934 16.8928 0.272238 16.5259C-0.0924575 16.16 -0.0905824 15.5701 0.276926 15.206L13.4491 2.18522C14.8629 0.776637 16.7464 0 18.7498 0C20.7533 0 22.6368 0.776637 24.0534 2.18803C25.47 3.59755 26.25 5.47286 26.25 7.46766Z" fill="#FFE11E"/>
</svg>
