<svg width="74" height="74" viewBox="0 0 74 74" fill="none" xmlns="http://www.w3.org/2000/svg">
<path d="M64.351 4.35291H9.649C6.74704 4.35291 4.35291 6.74702 4.35291 9.64898V12.6235C4.35291 17.2666 5.94899 21.9098 8.85096 25.5372C11.2451 28.5843 14.7274 30.9784 18.5725 32.2117L20.8215 32.9372C23.2157 36.9274 27.0608 39.9745 31.6314 41.3529V44.7627C31.6314 46.1411 30.5431 47.2294 29.1647 47.2294C26.2627 47.2294 23.8686 49.6235 23.8686 52.5255V54.9921H21.4019C20.6039 54.9921 20.0235 55.6451 20.0235 56.3706V66.7451H17.5568C16.7588 66.7451 16.1784 67.398 16.1784 68.1235C16.1784 68.9215 16.8314 69.5019 17.5568 69.5019H56.4431C57.2412 69.5019 57.8216 68.849 57.8216 68.1235C57.8216 67.398 57.1686 66.7451 56.4431 66.7451H53.9765V56.4431C53.9765 55.6451 53.3235 55.0647 52.598 55.0647H50.1314V52.598C50.1314 49.696 47.7373 47.3019 44.8353 47.3019C43.4569 47.3019 42.3686 46.2137 42.3686 44.8353V41.3529C47.0118 39.9745 50.7843 36.9274 53.1784 33.0098L55.5725 32.2843C59.3451 31.0509 62.6824 28.7294 65.149 25.6098C68.051 21.9823 69.6471 17.3392 69.6471 12.696V9.72153C69.6471 6.74702 67.3255 4.35291 64.351 4.35291ZM11.1 23.796C8.56076 20.6039 7.18234 16.6862 7.18234 12.6235V9.64898C7.18234 8.27055 8.27057 7.18232 9.649 7.18232H16.3235L18.3549 25.4647C18.5 26.8431 18.7902 28.2215 19.2255 29.4549C16.0333 28.3666 13.1314 26.3353 11.1 23.796ZM51.147 66.8176H22.8529V57.8215H51.147V66.8176ZM40.6274 38.8862C39.9745 39.0313 39.5392 39.6117 39.5392 40.2647V44.7627C39.5392 47.6647 41.9333 50.0588 44.8353 50.0588C46.2137 50.0588 47.302 51.147 47.302 52.5255V54.9921H26.7706V52.5255C26.7706 51.147 27.8588 50.0588 29.2372 50.0588C32.1392 50.0588 34.5333 47.6647 34.5333 44.7627V40.2647C34.5333 39.6117 34.098 39.0313 33.4451 38.8862C26.8431 37.3627 21.9098 31.849 21.1117 25.1019L19.0804 7.10977H54.847L52.8157 25.1019C52.1627 31.849 47.2294 37.3627 40.6274 38.8862ZM66.8902 12.6235C66.8902 16.6862 65.5118 20.6039 62.9726 23.796C60.8686 26.4804 58.0392 28.4392 54.7745 29.5274C55.2098 28.2215 55.5725 26.8431 55.7176 25.4647L57.749 7.18232H64.4235C65.802 7.18232 66.8902 8.27055 66.8902 9.64898V12.6235Z" fill="#1A12E6"/>
<path d="M41.8607 29.3823C41.6431 29.3823 41.4254 29.3098 41.2078 29.2372L37.0725 27.1333L32.9372 29.2372C32.4293 29.4549 31.9215 29.4549 31.4862 29.0921C31.0509 28.8019 30.8333 28.2215 30.9058 27.7137L31.7038 23.2156L28.3666 20.0235C28.0038 19.6607 27.8587 19.0803 28.0038 18.5725C28.1489 18.0647 28.5842 17.7019 29.1646 17.6294L33.8078 16.9764L35.9117 12.8411C36.1293 12.3333 36.6372 12.0431 37.145 12.0431C37.6529 12.0431 38.1607 12.3333 38.3784 12.8411L40.4823 16.9764L45.1254 17.6294C45.6333 17.7019 46.0686 18.0647 46.2862 18.5725C46.4313 19.0803 46.2862 19.6607 45.9235 20.0235L42.5862 23.2156L43.3842 27.7137C43.4568 28.2215 43.2391 28.8019 42.8038 29.0921C42.4411 29.3098 42.1509 29.3823 41.8607 29.3823ZM36.9999 24.0862C37.2176 24.0862 37.4352 24.1588 37.6529 24.2313L39.9744 25.3921L39.5391 22.9254C39.4666 22.4901 39.6117 21.9823 39.9744 21.6921L41.7882 20.0235L39.2489 19.6607C38.8137 19.5882 38.3784 19.298 38.1607 18.9352L36.9999 16.6862L35.8392 18.9352C35.6215 19.3705 35.2588 19.6607 34.7509 19.6607L32.2117 20.0235L34.0254 21.6921C34.3882 21.9823 34.5333 22.4901 34.4607 22.9254L34.0254 25.3921L36.347 24.2313C36.5646 24.1588 36.7823 24.0862 36.9999 24.0862Z" fill="#FFE11E"/>
</svg>
