<svg width="74" height="74" viewBox="0 0 74 74" fill="none" xmlns="http://www.w3.org/2000/svg">
<path d="M23.3608 71.0981V68.2687H35.549V62.2471L35.0411 62.1745C18.8627 59.2726 7.03723 45.1981 7.03723 28.7294C7.03723 21.9824 8.99605 15.453 12.7686 9.8667L15.0902 11.4628C11.6804 16.6138 9.86664 22.5628 9.86664 28.7294C9.86664 45.9236 23.8686 59.853 40.9902 59.853C47.1568 59.853 53.1059 58.0392 58.2568 54.6294L59.8529 56.951C55.9353 59.5628 51.5823 61.3039 47.0117 62.1745L46.5039 62.2471V68.2687H58.6921V71.0981H23.3608ZM38.451 68.2687H43.747V62.6098L43.0941 62.6824C42.4412 62.7549 41.7882 62.7549 41.0627 62.7549C40.4098 62.7549 39.7568 62.7549 39.0313 62.6824L38.3784 62.6098V68.2687H38.451Z" fill="#FFE11E"/>
<path d="M41.0627 54.557C26.8431 54.557 15.2352 42.9492 15.2352 28.7296C15.2352 14.5099 26.8431 2.9021 41.0627 2.9021C55.2823 2.9021 66.8901 14.5099 66.8901 28.7296C66.8901 42.9492 55.3548 54.557 41.0627 54.557ZM21.547 16.6139C19.298 20.2413 18.0646 24.4492 18.0646 28.7296C18.0646 40.4825 27.2784 50.5668 38.9588 51.655L39.6842 51.7276L39.6117 51.0021C39.4666 49.5511 38.6686 48.6805 36.9274 46.9394C36.2744 46.2864 36.0568 46.0688 35.6215 45.6335L34.9686 44.9805L35.9842 43.9648C38.2333 41.7158 39.1039 40.1923 38.0156 37.9433L35.9117 33.7354L26.9882 27.7864C24.6666 26.2629 23.8686 23.1433 25.1744 20.7492C25.6097 19.9511 25.6823 19.008 25.3195 18.2099C24.9568 17.4119 24.2313 16.8315 23.3607 16.6139L21.7646 16.2511L21.547 16.6139ZM39.7568 35.1139L40.5548 36.7099C41.9333 39.3943 41.498 42.006 39.394 44.5452L39.0313 44.9805L39.4666 45.4158C41.0627 47.0119 42.4411 48.5354 42.5137 51.0747V51.7276L43.1666 51.655C48.0274 51.2197 52.5254 49.2609 56.1529 46.0688L56.6607 45.6335L56.1529 45.1256C54.9921 44.1099 54.049 43.0943 53.4686 42.5139L53.3235 42.3688L53.0333 42.2962C49.9137 42.0786 47.2293 40.2648 45.8509 37.508C44.3999 34.5335 41.5705 34.2433 40.4823 34.2433H40.3372L39.0313 33.8805L39.7568 35.1139ZM40.6274 31.4139C43.9646 31.4139 47.0117 33.3001 48.4627 36.2746C49.4784 38.306 51.5097 39.5394 53.7588 39.5394H54.6293C55.2823 40.3374 56.298 41.4982 58.1117 43.1668L58.6195 43.6021L59.0548 43.0943C60.8686 40.7727 62.247 38.2335 63.1176 35.4041L63.3352 34.6786L62.5372 34.606C59.8529 34.3884 57.8941 34.2433 57.3137 34.2433C55.645 34.2433 54.2666 33.6629 53.3235 32.5021C52.0901 31.0511 51.5097 28.7296 51.8725 26.2629C52.0176 25.4648 52.3803 23.5786 53.4686 22.4903C54.7744 21.1845 56.9509 18.4276 58.547 16.3962L59.5627 15.0903L59.2725 14.7276C57.749 12.7688 55.9352 11.0276 53.8313 9.64916L53.1058 9.14132L52.8882 9.93935C52.7431 10.4472 52.5254 10.8825 52.2352 11.3178C51.0019 12.9864 48.6803 13.857 45.1254 13.857C43.6744 13.857 42.4411 15.0178 42.4411 16.5413V16.759C42.4411 18.355 42.4411 21.4021 39.6117 22.8531C36.4921 24.4492 35.8391 27.2786 37.6529 30.9786L37.798 31.3413V31.4139H37.8705L37.9431 31.6315L38.0156 31.7766L38.1607 31.4139H40.6274V31.4139ZM60.5784 18.355C59.0548 20.3139 56.8784 22.9982 55.4274 24.4492C54.7744 25.1746 54.194 28.0766 54.9921 29.8178C55.4274 30.8335 56.298 31.3413 57.3137 31.3413C57.9666 31.3413 60.2156 31.4864 63.1901 31.7766L63.7705 31.8492L63.8431 31.2688C63.9156 30.3982 63.9882 29.6001 63.9882 28.7296C63.9882 25.1021 63.1901 21.6923 61.594 18.4276L61.1588 17.557L60.5784 18.355ZM41.0627 5.73151C34.7509 5.73151 28.6568 8.41582 24.3039 12.9864L23.6509 13.7119L24.5215 14.0021C26.1176 14.5825 27.3509 15.7433 27.9313 17.3394C28.5117 18.9354 28.4392 20.6041 27.5686 22.1276C26.9156 23.2884 27.3509 24.7394 28.4391 25.4648L33.8078 29.0197L33.7352 27.7864C33.445 23.2884 36.7823 21.1119 38.2333 20.3864C39.5391 19.7335 39.5392 18.2825 39.5392 17.1943C39.5392 16.9766 39.5392 16.759 39.5392 16.5413C39.5392 13.4943 42.0058 11.0276 45.0529 11.0276C48.3901 11.0276 49.4784 10.157 49.8411 9.64916C50.1313 9.21386 50.2039 8.63347 50.0588 7.83543L49.9862 7.54524L49.696 7.40014C47.0117 6.3119 44.1097 5.73151 41.0627 5.73151Z" fill="white"/>
</svg>
