<svg width="74" height="74" viewBox="0 0 74 74" fill="none" xmlns="http://www.w3.org/2000/svg">
<path d="M37 42.7313C34.3156 42.7313 31.4137 40.9176 31.2686 36.9999C31.2686 33.8078 33.8803 31.2686 37 31.2686C40.1196 31.2686 42.7313 33.8803 42.7313 36.9999C42.6588 40.9176 39.6843 42.7313 37 42.7313ZM37 34.0254C35.6215 34.0254 34.098 34.9686 34.0254 36.9999C34.0254 38.6686 35.3313 39.9744 37 39.9744C38.6686 39.9744 39.9744 38.6686 39.9744 36.9999C39.9019 34.9686 38.3784 34.0254 37 34.0254Z" fill="#1A12E6"/>
<path d="M52.3078 49.2608C51.6548 49.2608 50.9293 48.8255 50.9293 47.8824V43.5294C51.0019 42.5863 51.6548 42.151 52.3078 42.151C52.9607 42.151 53.6862 42.5863 53.6862 43.5294V47.8824C53.6137 48.8255 52.9607 49.2608 52.3078 49.2608Z" fill="#1A12E6"/>
<path d="M13.0589 62.3922C12.2608 62.3922 11.6804 61.7392 11.6804 61.0137V56.6608C11.6804 55.8627 12.3334 55.2823 13.0589 55.2823C13.8569 55.2823 14.4373 55.9353 14.4373 56.6608V61.0137C14.4373 61.7392 13.7844 62.3922 13.0589 62.3922Z" fill="#1A12E6"/>
<path d="M4.35294 71.098C3.5549 71.098 2.97449 70.4451 2.97449 69.7196C2.97449 66.8176 2.97449 58.2568 2.97449 49.4784C2.97449 39.4667 2.97449 29.0196 2.97449 26.0451C2.97449 25.247 3.62745 24.6667 4.35294 24.6667H29.8902L35.6215 18.9353V13.5667C35.8392 14.0745 36.4196 14.4372 37 14.4372H38.3784V18.8627L44.1098 24.6667H69.7195C70.5176 24.6667 71.098 25.3196 71.098 26.0451C71.098 28.6568 71.098 36.5647 71.098 45.0529C71.098 55.2098 71.098 66.1647 71.098 69.7196C71.098 70.5176 70.445 71.098 69.7195 71.098H4.35294ZM43.6019 48.6804C44.4 48.6804 44.9804 49.3333 44.9804 50.0588V68.2686H68.3411V36.2019H52.3078C51.945 36.2019 51.5823 36.0568 51.2921 35.7667L37 21.547L22.7078 35.7667C22.4176 36.0568 22.1274 36.2019 21.6921 36.2019H5.65881V68.2686H29.0196V50.0588C29.0196 49.2608 29.6725 48.6804 30.398 48.6804H43.6019ZM31.9215 68.2686H42.2235V51.5098H31.9215V68.2686ZM52.9607 33.4451H68.3411V27.5686H47.0843L52.9607 33.4451ZM5.73136 33.3H21.0392L26.9156 27.4235H5.65881V33.3H5.73136Z" fill="#1A12E6"/>
<path d="M13.0589 49.2608C12.2608 49.2608 11.6804 48.6079 11.6804 47.8824V43.5294C11.6804 42.7314 12.3334 42.151 13.0589 42.151C13.8569 42.151 14.4373 42.8039 14.4373 43.5294V47.8824C14.4373 48.6804 13.7844 49.2608 13.0589 49.2608Z" fill="#FFE11E"/>
<path d="M52.3079 62.3922C51.5098 62.3922 50.9294 61.7392 50.9294 61.0137V56.6608C50.9294 55.8627 51.5824 55.2823 52.3079 55.2823C53.1059 55.2823 53.6863 55.9353 53.6863 56.6608V61.0137C53.6863 61.7392 53.0334 62.3922 52.3079 62.3922Z" fill="#FFE11E"/>
<path d="M61.0138 49.2608C60.2158 49.2608 59.6354 48.6079 59.6354 47.8824V43.5294C59.6354 42.7314 60.2883 42.151 61.0138 42.151C61.8118 42.151 62.3922 42.8039 62.3922 43.5294V47.8824C62.3922 48.6804 61.8118 49.2608 61.0138 49.2608Z" fill="#FFE11E"/>
<path d="M21.7647 49.2608C20.9666 49.2608 20.3862 48.6079 20.3862 47.8824V43.5294C20.3862 42.7314 21.0392 42.151 21.7647 42.151C22.5627 42.151 23.1431 42.8039 23.1431 43.5294V47.8824C23.1431 48.6804 22.5627 49.2608 21.7647 49.2608Z" fill="#FFE11E"/>
<path d="M61.0138 62.3922C60.2158 62.3922 59.6354 61.7392 59.6354 61.0137V56.6608C59.6354 55.8627 60.2883 55.2823 61.0138 55.2823C61.8118 55.2823 62.3922 55.9353 62.3922 56.6608V61.0137C62.3922 61.7392 61.8118 62.3922 61.0138 62.3922Z" fill="#FFE11E"/>
<path d="M21.7647 62.3922C20.9666 62.3922 20.3862 61.7392 20.3862 61.0137V56.6608C20.3862 55.8627 21.0392 55.2823 21.7647 55.2823C22.5627 55.2823 23.1431 55.9353 23.1431 56.6608V61.0137C23.1431 61.7392 22.5627 62.3922 21.7647 62.3922Z" fill="#FFE11E"/>
<path d="M37 14.4372C36.202 14.4372 35.6216 13.7843 35.6216 13.0588V4.35292C35.6216 3.55488 36.2745 2.97449 37 2.97449H50.0589C50.8569 2.97449 51.4373 3.62743 51.4373 4.35292V13.0588C51.4373 13.8568 50.7843 14.4372 50.0589 14.4372H37ZM38.451 11.6078H48.753V5.73135H38.451V11.6078Z" fill="#FFE11E"/>
</svg>
