<svg width="54" height="54" viewBox="0 0 54 54" fill="none" xmlns="http://www.w3.org/2000/svg">
<path d="M3.29997 46.7001C2.59997 46.7001 2.09998 46.2 2.09998 45.5V14C2.09998 13.3 2.59997 12.8 3.29997 12.8C3.99997 12.8 4.49997 13.3 4.49997 14V44.3H9.29997V33.1C9.29997 32.4 9.79997 31.9 10.5 31.9H18.5C19.2 31.9 19.7 32.4 19.7 33.1V44.3H23.8V27.6C23.8 26.9 24.3 26.4 25 26.4H33C33.7 26.4 34.2 26.9 34.2 27.6V44.3H38.3V19.9C38.3 19.2 38.8 18.7 39.5 18.7H47.5C48.2 18.7 48.7 19.2 48.7 19.9V44.3H50.7C51.4 44.3 51.9 44.8 51.9 45.5C51.9 46.2 51.4 46.7001 50.7 46.7001H3.29997ZM40.7 44.3H46.3V21.1H40.7V44.3ZM26.2 44.3H31.8V28.8H26.2V44.3ZM11.7 44.3H17.3V34.3H11.7V44.3Z" fill="white"/>
<path d="M10.5999 24.5C10.0999 24.5 9.69993 24.1999 9.49993 23.7999C9.39993 23.4999 9.39993 23.2 9.49993 22.9C9.59993 22.6 9.79993 22.4 10.0999 22.2L37.9999 9.89995L36.8999 7.49995C36.8999 7.39995 36.8999 7.39995 36.8999 7.29995C36.8999 7.19995 36.9999 7.19995 37.0999 7.19995L44.3999 7.99995C44.4999 7.99995 44.4999 7.99995 44.5999 8.09995C44.5999 8.19995 44.5999 8.19995 44.5999 8.29995L40.2999 14.2C40.2999 14.2 40.1999 14.3 40.0999 14.3C39.9999 14.3 39.9999 14.3 39.8999 14.2L38.9999 12.1L11.0999 24.4C10.8999 24.5 10.7999 24.5 10.5999 24.5Z" fill="white"/>
</svg>
