<svg width="94" height="114" viewBox="0 0 94 114" fill="none" xmlns="http://www.w3.org/2000/svg">
<path opacity="0.3" d="M86.8854 112H8.18678V92.7148L34.6669 65.938C42.2326 58.0261 47.1776 52.6361 49.5017 49.768C51.8258 46.8505 53.4329 44.3533 54.323 42.2765C55.2625 40.1996 55.7323 38.0238 55.7323 35.7492C55.7323 32.9305 54.8175 30.7053 52.9879 29.0735C51.1582 27.4417 48.5869 26.6258 45.2738 26.6258C41.8618 26.6258 38.4003 27.6147 34.8894 29.5927C31.428 31.5212 27.4967 34.3893 23.0958 38.1969L7 19.3567C12.5878 14.3623 17.2855 10.802 21.0931 8.67566C24.9007 6.49989 29.0297 4.84334 33.4801 3.706C37.98 2.56867 43.0238 2 48.6116 2C55.6334 2 61.8887 3.23623 67.3776 5.7087C72.9159 8.18116 77.1933 11.7168 80.2097 16.3156C83.2756 20.8649 84.8085 25.9829 84.8085 31.6696C84.8085 35.9222 84.2646 39.8535 83.1767 43.4633C82.1382 47.0731 80.5064 50.6334 78.2812 54.1443C76.056 57.6058 73.089 61.265 69.3803 65.1221C65.7211 68.9791 57.8833 76.2976 45.8672 87.0775V87.8193H86.8854V112Z" fill="white"/>
</svg>
