<svg width="44" height="44" viewBox="0 0 44 44" fill="none" xmlns="http://www.w3.org/2000/svg">
<path d="M22 44C9.86036 44 0 34.1396 0 22C0 9.86036 9.86036 0 22 0C34.1396 0 44 9.86036 44 22C44 34.1396 34.1396 44 22 44Z" fill="url(#paint0_linear_49_3626)"/>
<path d="M35.2297 13.7748C34.1892 14.2703 33.1487 14.5676 32.1577 14.5676C33.2973 13.8739 34.0406 12.8829 34.5361 11.5946C33.2973 12.2883 32.1081 12.7838 31.0676 12.8829C30.0766 11.8424 28.6892 11.1982 27.1532 11.1982C24.1306 11.1982 21.7027 13.6262 21.7027 16.6487C21.7027 17.0946 21.7523 17.5406 21.8514 17.937C16.946 17.6397 13.2297 15.6082 10.455 12.1892C9.16668 15.0136 9.51353 17.491 12.2388 19.5226C11.3469 19.5226 10.5045 19.3244 9.76128 18.8289C9.86038 21.5541 11.2478 23.3874 14.1712 24.2298C13.4279 24.4775 12.6352 24.4775 11.7433 24.3784C12.5361 26.6082 14.2207 27.8469 16.8469 28.0946C14.6171 29.8784 11.9415 30.6712 8.86938 30.4235C18.6306 36.5181 32.6532 30.473 32.6532 16.5991C32.6532 16.5496 32.6532 16.5 32.6532 16.4505C33.4955 15.8559 34.3874 14.9145 35.2297 13.7748Z" fill="white"/>
<defs>
<linearGradient id="paint0_linear_49_3626" x1="22.0019" y1="44.0038" x2="22.0019" y2="0" gradientUnits="userSpaceOnUse">
<stop stop-color="#1DA1F2"/>
<stop offset="1" stop-color="#4AB4F5"/>
</linearGradient>
</defs>
</svg>
