<svg width="74" height="74" viewBox="0 0 74 74" fill="none" xmlns="http://www.w3.org/2000/svg">
<path d="M37 20.3863C39.6843 20.3863 41.8608 18.2099 41.8608 15.5255C41.5706 9.14123 32.4294 9.14123 32.2118 15.5255C32.2118 18.2099 34.3883 20.3863 37 20.3863ZM37 13.5667C38.0883 13.5667 38.9589 14.4373 38.9589 15.5255C38.8863 18.1373 35.1138 18.1373 35.0412 15.5255C35.0412 14.4373 35.9843 13.5667 37 13.5667Z" fill="white"/>
<path d="M69.502 15.8158L37.5805 3.77264C37.2177 3.62754 36.9275 3.62754 36.5648 3.77264L4.6432 15.8158C4.06281 16.0334 3.70007 16.5413 3.70007 17.1217V25.1021C3.70007 25.9001 4.35301 26.553 5.15105 26.553H7.69027V51.5099H10.5922V34.4609H15.6707V51.4373H18.5726V34.4609H31.6314V51.4373H34.5334V34.4609H39.6118V51.4373H42.5138V34.4609H55.6452V51.4373H58.5471V34.4609H63.6255V51.4373H66.5275V26.4805H69.0667C69.8648 26.4805 70.5177 25.8275 70.5177 25.0295V17.0491C70.3726 16.5413 70.0099 15.9609 69.502 15.8158ZM63.553 31.5589H10.5197V26.4805H63.553V31.5589ZM67.5432 23.6511H6.52948V18.1373L37.0001 6.60205L67.4706 18.1373V23.6511H67.5432Z" fill="white"/>
<path d="M68.9942 67.4707H66.455V54.3394H63.553V59.5629H58.4746V54.3394H55.5726V59.5629H42.4412V54.3394H39.5393V59.5629H34.4608V54.3394H31.5589V59.5629H18.4275V54.3394H15.5255V59.5629H10.4471V54.3394H7.54513V67.4707H5.00591C4.20787 67.4707 3.55493 68.1237 3.55493 68.9217C3.55493 69.7197 4.20787 70.3727 5.00591 70.3727H68.8491C70.8804 70.3001 70.8804 67.6158 68.9942 67.4707ZM63.553 67.4707H10.5196V62.3923H63.553V67.4707Z" fill="white"/>
<path d="M20.9668 54.3392H5.07852C3.19225 54.2667 3.19225 51.5824 5.07852 51.4373H20.9668C22.9256 51.5098 22.9256 54.2667 20.9668 54.3392Z" fill="#FFE11E"/>
<path d="M44.9805 54.3392H29.0922C27.2059 54.2667 27.2059 51.5824 29.0922 51.4373H44.9805C46.8667 51.5098 46.8667 54.2667 44.9805 54.3392Z" fill="#FFE11E"/>
<path d="M68.9942 54.3392H53.106C51.2197 54.2667 51.2197 51.5824 53.106 51.4373H68.9942C70.8805 51.5098 70.8805 54.2667 68.9942 54.3392Z" fill="#FFE11E"/>
</svg>
