<svg width="74" height="74" viewBox="0 0 74 74" fill="none" xmlns="http://www.w3.org/2000/svg">
<path d="M33.2275 14.9451H23.9412C23.1432 14.9451 22.5627 14.2922 22.5627 13.5667C22.5627 12.8412 23.2157 12.1882 23.9412 12.1882H33.2275C34.0255 12.1882 34.6059 12.8412 34.6059 13.5667C34.6059 14.2922 33.953 14.9451 33.2275 14.9451Z" fill="#FFE11E"/>
<path d="M33.1549 22.7078H23.8686C23.0706 22.7078 22.4902 22.0548 22.4902 21.3294C22.4902 20.5313 23.1431 19.9509 23.8686 19.9509H33.1549C33.9529 19.9509 34.5333 20.6039 34.5333 21.3294C34.6059 22.1274 33.9529 22.7078 33.1549 22.7078Z" fill="#1A12E6"/>
<path d="M49.9138 30.5431H23.8686C23.0706 30.5431 22.4902 29.8902 22.4902 29.1647C22.4902 28.4392 23.1431 27.7863 23.8686 27.7863H49.9138C50.7118 27.7863 51.2922 28.4392 51.2922 29.1647C51.2922 29.8902 50.7118 30.5431 49.9138 30.5431Z" fill="#FFE11E"/>
<path d="M49.9138 38.3058H23.8686C23.0706 38.3058 22.4902 37.6529 22.4902 36.9274C22.4902 36.2019 23.1431 35.549 23.8686 35.549H49.9138C50.7118 35.549 51.2922 36.2019 51.2922 36.9274C51.2922 37.6529 50.7118 38.3058 49.9138 38.3058Z" fill="#1A12E6"/>
<path d="M42.949 61.8118H30.9784C30.1804 61.8118 29.6 61.1588 29.6 60.4334C29.6 59.7079 30.2529 59.0549 30.9784 59.0549H42.949C43.7471 59.0549 44.3274 59.7079 44.3274 60.4334C44.3274 61.1588 43.7471 61.8118 42.949 61.8118Z" fill="#1A12E6"/>
<path d="M68.2686 43.5294H59.1275V20.0235C59.1275 19.6607 58.9824 19.298 58.6922 19.0078L44.4726 4.7882C44.1824 4.498 43.8196 4.35291 43.4569 4.35291H16.1785C15.3804 4.35291 14.8 5.00585 14.8 5.73134V43.5294H5.65884C4.86081 43.5294 4.2804 44.1823 4.2804 44.9078V68.196C4.2804 68.9941 4.93335 69.5745 5.65884 69.5745H68.2686C69.0667 69.5745 69.6471 68.9215 69.6471 68.196V44.9804C69.6471 44.1823 69.0667 43.5294 68.2686 43.5294ZM44.8353 9.14114L54.3392 18.6451H44.8353V9.14114ZM17.6294 7.18232H42.0785V20.0235C42.0785 20.8215 42.7314 21.4019 43.4569 21.4019H56.2981V43.5294H48.753C47.9549 43.5294 47.3745 44.1823 47.3745 44.9078V51.147H26.553V44.9804C26.553 44.1823 25.9 43.6019 25.1746 43.6019H17.6294V7.18232ZM66.8177 66.8176H7.03729V46.3588H23.7236V52.598C23.7236 53.396 24.3765 53.9764 25.102 53.9764H48.753C49.551 53.9764 50.1314 53.3235 50.1314 52.598V46.3588H66.8177V66.8176Z" fill="#1A12E6"/>
</svg>
