<svg width="29" height="30" viewBox="0 0 29 30" fill="none" xmlns="http://www.w3.org/2000/svg">
<path d="M14.7 0.800049C6.8 0.800049 0.5 7.20005 0.5 15C0.5 18.1 1.5 21 3.2 23.3L1.4 28.6L6.9 26.9C9.2 28.4 11.8 29.3 14.7 29.3C22.5 29.3 28.9 22.9 28.9 15.1C28.9 7.30005 22.5 0.800049 14.7 0.800049ZM23 20.9C22.7 21.9 21.3 22.7 20.2 22.9C19.5 23.1 18.5 23.2 15.2 21.8C11 20.1 8.3 15.8 8.1 15.5C7.9 15.2 6.4 13.2 6.4 11.2C6.4 9.20005 7.4 8.20005 7.9 7.70005C8.2 7.30005 8.8 7.20005 9.4 7.20005C9.6 7.20005 9.7 7.20005 9.9 7.20005C10.3 7.20005 10.5 7.20005 10.8 7.90005C11.1 8.70005 12 10.8 12.1 11C12.2 11.2 12.3 11.5 12.2 11.8C12.1 12.1 11.9 12.2 11.7 12.5C11.5 12.7 11.3 12.9 11.1 13.2C10.9 13.4 10.7 13.7 10.9 14.1C11.1 14.5 12 15.9 13.2 17C14.8 18.4 16.1 18.9 16.5 19.1C16.8 19.2 17.3 19.2 17.5 18.9C17.8 18.6 18.2 18 18.6 17.4C18.9 17 19.2 16.9 19.6 17.1C20 17.2 22 18.2 22.4 18.4C22.8 18.6 23.1 18.7 23.2 18.9C23.3 19.1 23.3 19.9 23 20.9Z" fill="white"/>
</svg>
