<svg width="64" height="64" viewBox="0 0 64 64" fill="none" xmlns="http://www.w3.org/2000/svg">
<path d="M62.8964 52.9655H1.1035C0.494124 52.9655 0 52.4714 0 51.862V12.1379C0 11.5285 0.494124 11.0344 1.1035 11.0344H62.8965C63.5059 11.0344 64 11.5285 64 12.1379V51.862C63.9999 52.4715 63.5058 52.9655 62.8964 52.9655Z" fill="#FF4B55"/>
<path d="M31.6842 28.2191L33.4138 30.4817L36.1145 29.5777C36.2655 29.5272 36.394 29.698 36.3035 29.829L34.6862 32.1731L36.3805 34.4623C36.4753 34.5903 36.3525 34.7652 36.2 34.7197L33.4708 33.9058L31.8173 36.2246C31.7249 36.3542 31.5204 36.2916 31.5166 36.1325L31.4472 33.2853L28.7309 32.4292C28.5791 32.3813 28.5754 32.1677 28.7257 32.1148L31.4121 31.1691L31.3868 28.3212C31.3853 28.162 31.5876 28.0926 31.6842 28.2191Z" fill="#F5F5F5"/>
<path d="M22.1194 40.8327C17.2451 40.8327 13.2911 36.8786 13.2911 31.9999C13.2911 27.1301 17.2452 23.1671 22.1194 23.1671C23.9329 23.1671 25.6053 23.7249 26.999 24.6689C27.2124 24.8134 27.456 24.533 27.2774 24.3473C25.1944 22.1816 22.2464 20.8605 18.9777 20.9721C13.3619 21.1638 8.71295 25.6663 8.35407 31.2737C7.9432 37.6966 13.0289 43.0345 19.3609 43.0345C22.4801 43.0345 25.2833 41.7305 27.285 39.6455C27.4619 39.4613 27.2178 39.1851 27.0064 39.3284C25.6112 40.2745 23.9361 40.8327 22.1194 40.8327Z" fill="#F5F5F5"/>
</svg>
