<svg width="21" height="20" viewBox="0 0 21 20" fill="none" xmlns="http://www.w3.org/2000/svg">
<path d="M4.96667 11.6726C4.9666 10.7129 5.20332 9.76805 5.65583 8.92174C6.10833 8.07543 6.76266 7.35384 7.56079 6.82094C8.35892 6.28804 9.2762 5.96028 10.2313 5.86674C11.1864 5.77319 12.1499 5.91674 13.0362 6.28466C13.9226 6.65258 14.7045 7.2335 15.3126 7.97593C15.9207 8.71835 16.3363 9.59935 16.5224 10.5408C16.7085 11.4823 16.6595 12.4551 16.3797 13.3731C16.0999 14.2911 15.5979 15.1259 14.9182 15.8034L10.7999 19.8333L6.67498 15.7992C6.13135 15.2586 5.70042 14.6155 5.40717 13.9072C5.11393 13.1988 4.9642 12.4393 4.96667 11.6726V11.6726ZM10.7999 17.5L13.7466 14.6184C14.329 14.036 14.7257 13.294 14.8867 12.4862C15.0476 11.6784 14.9655 10.841 14.6507 10.0798C14.3359 9.31868 13.8026 8.6679 13.1181 8.20971C12.4336 7.75151 11.6287 7.50647 10.805 7.50554C9.98137 7.50461 9.17589 7.74783 8.49038 8.20448C7.80487 8.66112 7.27009 9.3107 6.95359 10.0711C6.6371 10.8316 6.55309 11.6688 6.71219 12.477C6.87129 13.2851 7.26635 14.028 7.84747 14.6117L10.7999 17.5ZM10.7999 9.16681C11.2944 9.16681 11.7777 9.31344 12.1888 9.58813C12.6 9.86283 12.9204 10.2533 13.1096 10.7101C13.2988 11.1669 13.3483 11.6696 13.2519 12.1545C13.1554 12.6394 12.9173 13.0849 12.5677 13.4345C12.218 13.7841 11.7726 14.0222 11.2876 14.1187C10.8027 14.2152 10.3 14.1657 9.84323 13.9764C9.38642 13.7872 8.99598 13.4668 8.72128 13.0557C8.44658 12.6446 8.29996 12.1612 8.29996 11.6668C8.29996 11.0037 8.56335 10.3679 9.03218 9.89904C9.50102 9.4302 10.1369 9.16681 10.7999 9.16681V9.16681ZM0.800059 8.37182V20H8.58912L6.88331 18.3334H2.4667V8.36933C2.46624 8.2428 2.49485 8.11786 2.55033 8.00415C2.60582 7.89044 2.68669 7.791 2.7867 7.7135L10.2866 1.84358C10.4332 1.72897 10.6139 1.6667 10.7999 1.6667C10.986 1.6667 11.1667 1.72897 11.3133 1.84358L18.8132 7.71183C18.9133 7.78963 18.9942 7.88937 19.0496 8.00336C19.1051 8.11735 19.1337 8.24255 19.1332 8.36933V18.3334H14.7165L13.0124 20H20.7998V8.36933C20.8008 7.98967 20.7149 7.61482 20.5486 7.2735C20.3824 6.93218 20.1402 6.63345 19.8406 6.40018L12.3407 0.531932C11.9008 0.18728 11.358 0 10.7991 0C10.2402 0 9.69742 0.18728 9.25745 0.531932L1.75755 6.40185C1.45834 6.63494 1.21648 6.93345 1.05051 7.27449C0.884541 7.61553 0.798868 7.99005 0.800059 8.36933V8.37182Z" fill="#1A12E6"/>
</svg>
