<svg width="114" height="18" viewBox="0 0 114 18" fill="none" xmlns="http://www.w3.org/2000/svg">
<path d="M18.6866 6.87273C18.6048 6.70909 18.4412 6.54545 18.2775 6.46364L12.4685 5.64545L9.85028 0.327272C9.76846 0.163636 9.60484 0 9.35939 0C9.11393 0 8.95027 0.0818179 8.86845 0.327272L6.25031 5.64545L0.441187 6.46364C0.195732 6.46364 0.0320959 6.62727 0.0320959 6.87273C-0.0497223 7.03636 0.0321059 7.28182 0.195742 7.44546L4.4503 11.5364L3.46847 17.3455C3.46847 17.5909 3.55028 17.7545 3.71391 17.9182C3.79573 18 3.95939 18 4.04121 18C4.12302 18 4.20483 18 4.28665 17.9182L9.52303 15.1364L14.7594 17.9182C14.923 18 15.1685 18 15.3321 17.8364C15.4957 17.6727 15.5775 17.5091 15.5775 17.2636L14.5957 11.4545L18.8503 7.36364C18.7685 7.28182 18.7684 7.11818 18.6866 6.87273Z" fill="#FFE11E"/>
<path d="M42.4139 6.87273C42.3321 6.70909 42.1684 6.54545 42.0048 6.46364L36.1957 5.64545L33.5775 0.327272C33.4957 0.163636 33.3321 0 33.0867 0C32.8412 0 32.6775 0.0818179 32.5957 0.327272L29.9776 5.64545L24.1685 6.46364C23.923 6.46364 23.7594 6.62727 23.7594 6.87273C23.6775 7.03636 23.7594 7.28182 23.923 7.44546L28.1776 11.5364L27.1957 17.3455C27.1957 17.5909 27.2775 17.7545 27.4412 17.9182C27.523 18 27.6867 18 27.7685 18C27.8503 18 27.9321 18 28.0139 17.9182L33.2503 15.1364L38.4866 17.9182C38.6503 18 38.8957 18 39.0594 17.8364C39.223 17.6727 39.3048 17.5091 39.3048 17.2636L38.323 11.4545L42.5775 7.36364C42.4139 7.28182 42.4957 7.11818 42.4139 6.87273Z" fill="#FFE11E"/>
<path d="M66.1412 6.87273C66.0593 6.70909 65.8957 6.54545 65.7321 6.46364L59.923 5.64545L57.3048 0.327272C57.223 0.163636 57.0594 0 56.8139 0C56.5685 0 56.4048 0.0818179 56.323 0.327272L53.7048 5.64545L47.8957 6.46364C47.6503 6.46364 47.4866 6.62727 47.4866 6.87273C47.4048 7.03636 47.4866 7.28182 47.6503 7.44546L51.9048 11.5364L50.923 17.3455C50.923 17.5909 51.0048 17.7545 51.1684 17.9182C51.2503 18 51.4139 18 51.4957 18C51.5776 18 51.6594 18 51.7412 17.9182L56.9776 15.1364L62.2139 17.9182C62.3775 18 62.623 18 62.7866 17.8364C62.9503 17.6727 63.0321 17.5091 63.0321 17.2636L62.0503 11.4545L66.3048 7.36364C66.1412 7.28182 66.223 7.11818 66.1412 6.87273Z" fill="#FFE11E"/>
<path d="M89.8684 6.87273C89.7866 6.70909 89.623 6.54545 89.4593 6.46364L83.6503 5.64545L81.0321 0.327272C80.9503 0.163636 80.7867 0 80.5412 0C80.2957 0 80.1321 0.0818179 80.0503 0.327272L77.4321 5.64545L71.623 6.46364C71.3775 6.46364 71.2139 6.62727 71.2139 6.87273C71.1321 7.03636 71.2139 7.28182 71.3775 7.44546L75.6321 11.5364L74.6503 17.3455C74.6503 17.5909 74.7321 17.7545 74.8957 17.9182C74.9775 18 75.1412 18 75.223 18C75.3048 18 75.3866 18 75.4685 17.9182L80.7048 15.1364L85.9412 17.9182C86.1048 18 86.3503 18 86.5139 17.8364C86.6776 17.6727 86.7594 17.5091 86.7594 17.2636L85.7775 11.4545L90.0321 7.36364C89.8684 7.28182 89.9503 7.11818 89.8684 6.87273Z" fill="#FFE11E"/>
<path d="M113.596 6.87273C113.514 6.70909 113.35 6.54545 113.187 6.46364L107.378 5.64545L104.759 0.327272C104.678 0.163636 104.514 0 104.268 0C104.023 0 103.859 0.0818179 103.778 0.327272L101.159 5.64545L95.3503 6.46364C95.1048 6.46364 94.9412 6.62727 94.9412 6.87273C94.8594 7.03636 94.9412 7.28182 95.1048 7.44546L99.3594 11.5364L98.3775 17.3455C98.3775 17.5909 98.4594 17.7545 98.623 17.9182C98.7048 18 98.8685 18 98.9503 18C99.0321 18 99.1139 18 99.1957 17.9182L104.432 15.1364L109.668 17.9182C109.832 18 110.078 18 110.241 17.8364C110.405 17.6727 110.487 17.5091 110.487 17.2636L109.505 11.4545L113.759 7.36364C113.596 7.28182 113.678 7.11818 113.596 6.87273Z" fill="#FFE11E"/>
</svg>
