<svg width="20" height="20" viewBox="0 0 20 20" fill="none" xmlns="http://www.w3.org/2000/svg">
<path d="M4.16662 11.6726C4.16656 10.7129 4.40327 9.76805 4.85578 8.92174C5.30829 8.07543 5.96261 7.35384 6.76074 6.82094C7.55887 6.28804 8.47616 5.96028 9.43127 5.86674C10.3864 5.77319 11.3498 5.91674 12.2362 6.28466C13.1226 6.65258 13.9045 7.2335 14.5126 7.97593C15.1207 8.71835 15.5362 9.59935 15.7224 10.5408C15.9085 11.4823 15.8595 12.4551 15.5796 13.3731C15.2998 14.2911 14.7978 15.1259 14.1182 15.8034L9.99988 19.8333L5.87493 15.7992C5.3313 15.2586 4.90037 14.6155 4.60712 13.9072C4.31388 13.1988 4.16415 12.4393 4.16662 11.6726V11.6726ZM9.99988 17.5L12.9465 14.6184C13.5289 14.036 13.9257 13.294 14.0866 12.4862C14.2475 11.6784 14.1654 10.841 13.8506 10.0798C13.5359 9.31868 13.0025 8.6679 12.3181 8.20971C11.6336 7.75151 10.8287 7.50647 10.005 7.50554C9.18132 7.50461 8.37584 7.74783 7.69033 8.20448C7.00482 8.66112 6.47004 9.3107 6.15354 10.0711C5.83705 10.8316 5.75304 11.6688 5.91214 12.477C6.07124 13.2851 6.4663 14.028 7.04742 14.6117L9.99988 17.5ZM9.99988 9.16681C10.4943 9.16681 10.9777 9.31344 11.3888 9.58813C11.7999 9.86283 12.1203 10.2533 12.3095 10.7101C12.4988 11.1669 12.5483 11.6696 12.4518 12.1545C12.3553 12.6394 12.1172 13.0849 11.7676 13.4345C11.418 13.7841 10.9725 14.0222 10.4876 14.1187C10.0027 14.2152 9.49999 14.1657 9.04318 13.9764C8.58637 13.7872 8.19593 13.4668 7.92123 13.0557C7.64653 12.6446 7.49991 12.1612 7.49991 11.6668C7.49991 11.0037 7.7633 10.3679 8.23213 9.89904C8.70097 9.4302 9.33685 9.16681 9.99988 9.16681V9.16681ZM1.01726e-05 8.37182V20H7.78907L6.08326 18.3334H1.66665V8.36933C1.66619 8.2428 1.6948 8.11786 1.75028 8.00415C1.80577 7.89044 1.88664 7.791 1.98665 7.7135L9.48655 1.84358C9.63312 1.72897 9.81382 1.6667 9.99988 1.6667C10.1859 1.6667 10.3666 1.72897 10.5132 1.84358L18.0131 7.71183C18.1132 7.78963 18.1941 7.88937 18.2496 8.00336C18.3051 8.11735 18.3336 8.24255 18.3331 8.36933V18.3334H13.9165L12.2123 20H19.9997V8.36933C20.0007 7.98967 19.9148 7.61482 19.7486 7.2735C19.5823 6.93218 19.3401 6.63345 19.0406 6.40018L11.5407 0.531932C11.1007 0.18728 10.5579 0 9.99904 0C9.44015 0 8.89737 0.18728 8.4574 0.531932L0.957498 6.40185C0.658292 6.63494 0.416433 6.93345 0.250462 7.27449C0.0844923 7.61553 -0.00118126 7.99005 1.01726e-05 8.36933V8.37182Z" fill="white"/>
</svg>
