<svg width="64" height="64" viewBox="0 0 64 64" fill="none" xmlns="http://www.w3.org/2000/svg">
<path d="M62.8964 52.9655H1.1035C0.494124 52.9655 0 52.4714 0 51.862V12.1379C0 11.5285 0.494124 11.0344 1.1035 11.0344H62.8965C63.5059 11.0344 64 11.5285 64 12.1379V51.862C63.9999 52.4715 63.5058 52.9655 62.8964 52.9655Z" fill="#FF4B55"/>
<path d="M10.6259 17.5917L11.6779 20.7459L15.0029 20.7716C15.4334 20.7749 15.6119 21.3244 15.2655 21.58L12.5907 23.5551L13.5936 26.7254C13.7234 27.1359 13.2561 27.4753 12.9059 27.225L10.2009 25.2914L7.49588 27.2249C7.14563 27.4753 6.67838 27.1356 6.80813 26.7253L7.81101 23.555L5.13626 21.58C4.78989 21.3243 4.96839 20.7749 5.39889 20.7716L8.72388 20.7459L9.77588 17.5917C9.91213 17.1832 10.4898 17.1832 10.6259 17.5917Z" fill="#FFE15A"/>
<path d="M22.6998 18.3689L23.4542 19.3977L24.6716 19.0169C24.8292 18.9677 24.9588 19.1474 24.8623 19.2813L24.1171 20.3164L24.8553 21.3565C24.9509 21.4912 24.8201 21.67 24.6628 21.6197L23.4479 21.2308L22.6868 22.2544C22.5883 22.3869 22.3777 22.3177 22.3771 22.1527L22.3714 20.877L21.1627 20.4694C21.0063 20.4165 21.0069 20.195 21.1638 20.1433L22.3751 19.7438L22.3893 18.4683C22.3911 18.3034 22.6022 18.2358 22.6998 18.3689Z" fill="#FFE15A"/>
<path d="M18.1072 15.3027L19.3753 15.4404L19.9163 14.2853C19.9864 14.1358 20.2064 14.1614 20.2402 14.323L20.5009 15.5715L21.7667 15.729C21.9305 15.7494 21.9742 15.9667 21.8308 16.0488L20.7239 16.6825L20.9653 17.935C20.9965 18.0973 20.8034 18.2058 20.681 18.0949L19.7362 17.238L18.6197 17.8545C18.4752 17.9344 18.3121 17.7841 18.3798 17.6335L18.9027 16.47L17.9712 15.5985C17.8507 15.4863 17.9431 15.2849 18.1072 15.3027Z" fill="#FFE15A"/>
<path d="M20.1119 27.6642L19.3575 28.693L18.1402 28.3122C17.9825 28.263 17.8529 28.4427 17.9494 28.5766L18.6947 29.6117L17.9564 30.6518C17.8608 30.7865 17.9917 30.9653 18.1489 30.915L19.3638 30.5261L20.1249 31.5497C20.2234 31.6822 20.434 31.613 20.4347 31.448L20.4403 30.1723L21.649 29.7647C21.8055 29.7118 21.8048 29.4903 21.6479 29.4386L20.4367 29.0391L20.4224 27.7636C20.4204 27.5988 20.2095 27.531 20.1119 27.6642Z" fill="#FFE15A"/>
<path d="M24.7043 24.7829L23.4362 24.9206L22.8952 23.7655C22.8251 23.616 22.6051 23.6416 22.5713 23.8033L22.3105 25.0518L21.0447 25.2093C20.8808 25.2296 20.8372 25.4469 20.9806 25.529L22.0875 26.1628L21.8461 27.4153C21.8148 27.5775 22.008 27.686 22.1303 27.5751L23.0752 26.7183L24.1917 27.3347C24.3362 27.4146 24.4993 27.2644 24.4316 27.1138L23.9087 25.9503L24.8402 25.0788C24.9611 24.9665 24.8687 24.7651 24.7043 24.7829Z" fill="#FFE15A"/>
</svg>
