<svg width="20" height="20" viewBox="0 0 20 20" fill="none" xmlns="http://www.w3.org/2000/svg">
<path d="M16.6364 1.81812H3.27273C2 1.81812 1 2.81812 1 4.09084V18.1818H18.8182V4.09084C18.9091 2.81812 17.9091 1.81812 16.6364 1.81812ZM3.27273 3.27266H16.6364C17.0909 3.27266 17.3636 3.6363 17.3636 3.99993V4.54539L11.5455 10.3636C10.6364 11.2727 9.27273 11.2727 8.36364 10.3636L2.54546 4.54539V4.09084C2.54546 3.6363 2.81818 3.27266 3.27273 3.27266ZM2.54546 16.7272V6.72721L7.36364 11.5454C8.81818 12.9999 11.1818 12.9999 12.6364 11.5454L17.4545 6.72721V16.7272H2.54546Z" fill="white"/>
</svg>
