<svg width="16" height="16" viewBox="0 0 16 16" fill="none" xmlns="http://www.w3.org/2000/svg">
<path d="M8 16C3.6 16 0 12.4 0 8C0 3.6 3.6 0 8 0C12.4 0 16 3.6 16 8C16 12.4 12.4 16 8 16ZM11.5 11.3C11 12.4 10.4 13.5 9.6 14.4L9.3 14.7L9.7 14.6C11.5 14.1 13 13 13.9 11.4L14 11.2L11.5 11.3ZM2 11.4C2.9 13 4.4 14.1 6.2 14.6L6.6 14.7L6.3 14.4C5.5 13.5 4.9 12.4 4.4 11.3H4.3H1.8L2 11.4ZM5.7 11.4C6.3 12.5 7 13.6 7.9 14.5L8 14.6H8.1C9 13.6 9.8 12.6 10.3 11.4L10.4 11.2H5.6L5.7 11.4ZM12 6C12.2 6.7 12.3 7.3 12.3 8C12.3 8.7 12.2 9.3 12 10V10.1L12.1 10.2H14.5V10.1C14.9 8.7 14.9 7.3 14.5 5.9V5.8H14.4H11.9L12 6ZM5.1 5.9C4.9 6.6 4.8 7.3 4.8 8C4.8 8.7 4.9 9.4 5.1 10.1V10.2H5.2H10.8V10.1C11 9.4 11.1 8.7 11.1 8C11.1 7.3 11 6.6 10.8 5.9V5.8H10.7L5.1 5.9ZM1.4 5.9C1 7.3 1 8.7 1.4 10V10.1H1.5H4V10C3.8 9.3 3.7 8.6 3.7 7.9C3.7 7.2 3.8 6.6 4 5.9V5.8L3.9 5.7L1.4 5.9ZM9.6 1.5C10.4 2.4 11 3.5 11.5 4.6H11.6H14.1L14 4.4C13 2.9 11.5 1.8 9.8 1.3L9.4 1.2L9.6 1.5ZM7.9 1.3C7 2.3 6.2 3.3 5.7 4.5L5.6 4.7H10.4L10.3 4.5C9.7 3.4 9 2.3 8.1 1.4L7.9 1.3ZM6.2 1.3C4.4 1.8 2.9 2.9 2 4.5L1.9 4.7H4.4C4.9 3.5 5.5 2.5 6.3 1.5L6.6 1.2L6.2 1.3Z" fill="white"/>
</svg>
