<svg width="20" height="20" viewBox="0 0 20 20" fill="none" xmlns="http://www.w3.org/2000/svg">
<path d="M16.5373 1.77466H3.57454C2.34 1.77466 1.37 2.75066 1.37 3.99284V17.7456H18.6536V3.99284C18.7418 2.75066 17.7718 1.77466 16.5373 1.77466ZM3.57454 3.19429H16.5373C16.9782 3.19429 17.2427 3.5492 17.2427 3.90411V4.43648L11.5991 10.115C10.7173 11.0023 9.39454 11.0023 8.51272 10.115L2.86909 4.43648V3.99284C2.86909 3.5492 3.13363 3.19429 3.57454 3.19429ZM2.86909 16.3259V6.56593L7.54272 11.2685C8.95363 12.6881 11.2464 12.6881 12.6573 11.2685L17.3309 6.56593V16.3259H2.86909Z" fill="#1A12E6"/>
</svg>
