<svg width="54" height="54" viewBox="0 0 54 54" fill="none" xmlns="http://www.w3.org/2000/svg">
<path d="M14.2 41.6001L11.2 44.6001L9.49995 42.9001L12.5 39.9001L2.29994 35.0001L6.39995 30.9001L15.7999 30.3001L22.8999 23.2001L2.19995 15.1001L8.09995 9.2001L33 13.1001L40.7 5.4001C41.6 4.5001 43.4999 3.4001 45.3999 2.7001C46.5999 2.3001 47.6 2.1001 48.5 2.1001C49.6 2.1001 50.4 2.4001 51 3.0001C52.1 4.1001 52.1999 6.1001 51.2999 8.7001C50.5999 10.5001 49.4999 12.5001 48.5999 13.4001L41 21.0001L44.8999 45.9001L39 51.8001L30.8999 31.1001L23.7 38.3001L23.0999 47.7001L19 51.8001L14.2 41.6001ZM15.8999 39.8001L19.7999 47.8001L21 46.6001L21.5999 37.2001L46.8999 11.8001C47.4999 11.2001 48.4 9.6001 49 8.0001C49.6 6.2001 49.5999 5.1001 49.2999 4.8001C49.1999 4.7001 48.8999 4.6001 48.3999 4.6001C47.9999 4.6001 47.2 4.7001 46 5.1001C44.4 5.7001 42.8 6.7001 42.2 7.2001L16.7999 32.6001L7.39995 33.2001L6.19995 34.4001L14.2 38.3001L16.7 35.8001L18.3999 37.5001L15.8999 39.8001ZM32.7 29.3001L39.8999 47.6001L42.3999 45.1001L38.8999 23.1001L32.7 29.3001ZM6.39995 14.3001L24.7 21.5001L30.8999 15.3001L8.89995 11.8001L6.39995 14.3001Z" fill="white"/>
</svg>
