<svg width="54" height="54" viewBox="0 0 54 54" fill="none" xmlns="http://www.w3.org/2000/svg">
<path d="M22.1999 19.9H19.8999V22.2H22.1999V19.9Z" fill="white"/>
<path d="M28.0999 19.9H25.7999V22.2H28.0999V19.9Z" fill="white"/>
<path d="M34.0999 19.9H31.7999V22.2H34.0999V19.9Z" fill="white"/>
<path d="M43.8999 52C41.4999 52 40.3 51.4 39.2 50.9C38.2 50.4 37.2999 50 35.4999 50C33.6999 50 32.8 50.4 31.8 50.9C30.7 51.4 29.4999 52 27.0999 52C26.7999 52 26.5 52 26.3 52C24.5 51.9 23.3999 51.4 22.3999 50.9C21.5999 50.5 20.8999 50.2 19.5999 50.1C19.2999 50.1 19 50.1 18.7 50.1C16.9 50.1 15.9999 50.5 14.9999 51C13.8999 51.5 12.7 52.1 10.3 52.1C7.89996 52.1 6.69995 51.5 5.59995 51C4.69995 50.6 3.79995 50.2 2.19995 50.1V47.8C4.39995 47.8 5.49995 48.4 6.59995 48.9C6.79995 49 6.99995 49.1 7.19995 49.2L7.79996 49.4L4.99994 36.9L11.2 33.8L13.4999 18.4C13.8999 16.1 15.9 14.3 18.3 14.1H18.5999V8H21.5999V2H32.5999V8H35.5999V13.9H35.8999C38.2999 14.1 40.2 15.9 40.7 18.2L42.9999 33.6L49.2 36.7L46.3999 49.2L46.9999 49C47.1999 48.9 47.3999 48.8 47.5999 48.7C48.5999 48.2 49.7999 47.7 51.9999 47.6V50C50.3999 50 49.4999 50.4 48.5999 50.9C47.4999 51.4 46.1999 52 43.8999 52ZM7.49994 38L10.0999 49.6H10.3999C12.0999 49.6 12.8999 49.2 13.8999 48.7C14.9999 48.2 16.1999 47.6 18.5999 47.6C20.6999 47.6 21.8999 48.1 22.9999 48.6L23.3 48.7C24 49 24.5999 49.3 25.4999 49.5L25.8999 49.6V28.9L7.49994 38ZM35.3999 47.6C37.7999 47.6 38.9999 48.2 40.0999 48.7C41.0999 49.2 41.8999 49.5 43.5999 49.6H43.8999L46.4999 38L28.2 28.9V49.5L28.5999 49.4C29.4999 49.2 30.1 49 30.8 48.6L31.0999 48.4C32.0999 48.1 33.2999 47.6 35.3999 47.6ZM40.3999 32.4L38.3999 18.7C38.0999 17.3 36.8999 16.3 35.4999 16.3H18.4999C17.0999 16.3 15.8999 17.3 15.5999 18.7L13.5999 32.4L27.0999 25.7L40.3999 32.4ZM20.8 13.9H33.3V10.3H20.8V13.9ZM23.7 8H30.3V4.4H23.7V8Z" fill="white"/>
</svg>
