<svg width="64" height="64" viewBox="0 0 64 64" fill="none" xmlns="http://www.w3.org/2000/svg">
<path d="M63.9999 25.0115H0V12.1379C0 11.5285 0.494124 11.0344 1.1035 11.0344H62.8965C63.5059 11.0344 64 11.5285 64 12.1379L63.9999 25.0115Z" fill="#82AFFF"/>
<path d="M62.8964 52.9655H1.1035C0.494124 52.9655 0 52.4714 0 51.862V38.9885H63.9999V51.862C63.9999 52.4715 63.5058 52.9655 62.8964 52.9655Z" fill="#73AF00"/>
<path d="M63.9999 25.0114H0V38.9876H63.9999V25.0114Z" fill="#F5F5F5"/>
<path d="M63.9999 23.77H0V25.5128H63.9999V23.77Z" fill="#FF4B55"/>
<path d="M63.9999 38.4862H0V40.229H63.9999V38.4862Z" fill="#FF4B55"/>
<path d="M14.1864 21.509C11.9274 21.509 10.0963 19.6822 10.0963 17.4313C10.0963 15.1722 11.9273 13.3372 14.1864 13.3372C14.1951 13.3372 14.2036 13.3372 14.2121 13.3374C14.3451 13.3391 14.3918 13.1625 14.2745 13.0996C13.5789 12.7267 12.785 12.5157 11.941 12.5219C9.23801 12.5411 7.04239 14.781 7.07114 17.484C7.09939 20.1591 9.28639 22.3245 11.9764 22.3245C12.8088 22.3245 13.5915 22.1138 14.2785 21.7461C14.3954 21.6835 14.3481 21.5068 14.2156 21.5087C14.2056 21.509 14.196 21.509 14.1864 21.509Z" fill="#F5F5F5"/>
<path d="M17.3891 20.3814L17.2065 20.9292L16.6291 20.9335C16.5544 20.934 16.5234 21.0295 16.5835 21.0739L17.048 21.4169L16.8737 21.9674C16.8512 22.0386 16.9324 22.0976 16.9932 22.0541L17.463 21.7184L17.9327 22.0541C17.9936 22.0976 18.0746 22.0386 18.0522 21.9674L17.878 21.4169L18.3424 21.0739C18.4025 21.0295 18.3715 20.934 18.2967 20.9335L17.7194 20.9292L17.5367 20.3814C17.5131 20.3105 17.4129 20.3105 17.3891 20.3814Z" fill="#F5F5F5"/>
<path d="M21.457 20.3814L21.2743 20.9292L20.697 20.9335C20.6222 20.934 20.5912 21.0295 20.6513 21.0739L21.1157 21.4169L20.9415 21.9674C20.919 22.0386 21.0001 22.0976 21.061 22.0541L21.5307 21.7184L22.0005 22.0541C22.0613 22.0976 22.1423 22.0386 22.12 21.9674L21.9457 21.4169L22.4101 21.0739C22.4702 21.0295 22.4392 20.934 22.3645 20.9335L21.7871 20.9292L21.6045 20.3814C21.5808 20.3105 21.4805 20.3105 21.457 20.3814Z" fill="#F5F5F5"/>
<path d="M25.5247 20.3814L25.3421 20.9292L24.7647 20.9335C24.69 20.934 24.659 21.0295 24.7191 21.0739L25.1836 21.4169L25.0093 21.9674C24.9868 22.0386 25.068 22.0976 25.1288 22.0541L25.5986 21.7184L26.0683 22.0541C26.1292 22.0976 26.2102 22.0386 26.1878 21.9674L26.0136 21.4169L26.478 21.0739C26.5381 21.0295 26.5071 20.934 26.4323 20.9335L25.855 20.9292L25.6723 20.3814C25.6487 20.3105 25.5483 20.3105 25.5247 20.3814Z" fill="#F5F5F5"/>
<path d="M29.5925 20.3814L29.4098 20.9292L28.8325 20.9335C28.7577 20.934 28.7267 21.0295 28.7868 21.0739L29.2512 21.4169L29.077 21.9674C29.0545 22.0386 29.1356 22.0976 29.1965 22.0541L29.6662 21.7184L30.136 22.0541C30.1968 22.0976 30.2778 22.0386 30.2555 21.9674L30.0812 21.4169L30.5456 21.0739C30.6057 21.0295 30.5747 20.934 30.5 20.9335L29.9226 20.9292L29.74 20.3814C29.7165 20.3105 29.6161 20.3105 29.5925 20.3814Z" fill="#F5F5F5"/>
<path d="M33.6603 20.3814L33.4777 20.9292L32.9003 20.9335C32.8256 20.934 32.7946 21.0295 32.8547 21.0739L33.3192 21.4169L33.145 21.9674C33.1225 22.0386 33.2036 22.0976 33.2645 22.0541L33.7342 21.7184L34.204 22.0541C34.2648 22.0976 34.3458 22.0386 34.3235 21.9674L34.1492 21.4169L34.6137 21.0739C34.6738 21.0295 34.6428 20.934 34.5681 20.9335L33.9907 20.9292L33.8081 20.3814C33.7842 20.3105 33.684 20.3105 33.6603 20.3814Z" fill="#F5F5F5"/>
<path d="M21.457 16.5848L21.2743 17.1326L20.697 17.137C20.6222 17.1375 20.5912 17.233 20.6513 17.2773L21.1157 17.6203L20.9415 18.1708C20.919 18.2421 21.0001 18.3011 21.061 18.2576L21.5307 17.9218L22.0005 18.2576C22.0613 18.3011 22.1423 18.2421 22.12 18.1708L21.9457 17.6203L22.4101 17.2773C22.4702 17.233 22.4392 17.1375 22.3645 17.137L21.7871 17.1326L21.6045 16.5848C21.5808 16.5137 21.4805 16.5137 21.457 16.5848Z" fill="#F5F5F5"/>
<path d="M25.5247 16.5848L25.3421 17.1326L24.7647 17.137C24.69 17.1375 24.659 17.233 24.7191 17.2773L25.1836 17.6203L25.0093 18.1708C24.9868 18.2421 25.068 18.3011 25.1288 18.2576L25.5986 17.9218L26.0683 18.2576C26.1292 18.3011 26.2102 18.2421 26.1878 18.1708L26.0136 17.6203L26.478 17.2773C26.5381 17.233 26.5071 17.1375 26.4323 17.137L25.855 17.1326L25.6723 16.5848C25.6487 16.5137 25.5483 16.5137 25.5247 16.5848Z" fill="#F5F5F5"/>
<path d="M29.5925 16.5848L29.4098 17.1326L28.8325 17.137C28.7577 17.1375 28.7267 17.233 28.7868 17.2773L29.2512 17.6203L29.077 18.1708C29.0545 18.2421 29.1356 18.3011 29.1965 18.2576L29.6662 17.9218L30.136 18.2576C30.1968 18.3011 30.2778 18.2421 30.2555 18.1708L30.0812 17.6203L30.5456 17.2773C30.6057 17.233 30.5747 17.1375 30.5 17.137L29.9226 17.1326L29.74 16.5848C29.7165 16.5137 29.6161 16.5137 29.5925 16.5848Z" fill="#F5F5F5"/>
<path d="M33.6603 16.5848L33.4777 17.1326L32.9003 17.137C32.8256 17.1375 32.7946 17.233 32.8547 17.2773L33.3192 17.6203L33.145 18.1708C33.1225 18.2421 33.2036 18.3011 33.2645 18.2576L33.7342 17.9218L34.204 18.2576C34.2648 18.3011 34.3458 18.2421 34.3235 18.1708L34.1492 17.6203L34.6137 17.2773C34.6738 17.233 34.6428 17.1375 34.5681 17.137L33.9907 17.1326L33.8081 16.5848C33.7842 16.5137 33.684 16.5137 33.6603 16.5848Z" fill="#F5F5F5"/>
<path d="M25.5247 20.3814L25.3421 20.9292L24.7647 20.9335C24.69 20.934 24.659 21.0295 24.7191 21.0739L25.1836 21.4169L25.0093 21.9674C24.9868 22.0386 25.068 22.0976 25.1288 22.0541L25.5986 21.7184L26.0683 22.0541C26.1292 22.0976 26.2102 22.0386 26.1878 21.9674L26.0136 21.4169L26.478 21.0739C26.5381 21.0295 26.5071 20.934 26.4323 20.9335L25.855 20.9292L25.6723 20.3814C25.6487 20.3105 25.5483 20.3105 25.5247 20.3814Z" fill="#F5F5F5"/>
<path d="M25.5247 12.7881L25.3421 13.3359L24.7647 13.3403C24.69 13.3408 24.659 13.4363 24.7191 13.4806L25.1836 13.8236L25.0093 14.3741C24.9868 14.4454 25.068 14.5044 25.1288 14.4609L25.5986 14.1251L26.0683 14.4609C26.1292 14.5044 26.2102 14.4454 26.1878 14.3741L26.0136 13.8236L26.478 13.4806C26.5381 13.4363 26.5071 13.3408 26.4323 13.3403L25.855 13.3359L25.6723 12.7881C25.6487 12.7173 25.5483 12.7173 25.5247 12.7881Z" fill="#F5F5F5"/>
<path d="M29.5925 20.3814L29.4098 20.9292L28.8325 20.9335C28.7577 20.934 28.7267 21.0295 28.7868 21.0739L29.2512 21.4169L29.077 21.9674C29.0545 22.0386 29.1356 22.0976 29.1965 22.0541L29.6662 21.7184L30.136 22.0541C30.1968 22.0976 30.2778 22.0386 30.2555 21.9674L30.0812 21.4169L30.5456 21.0739C30.6057 21.0295 30.5747 20.934 30.5 20.9335L29.9226 20.9292L29.74 20.3814C29.7165 20.3105 29.6161 20.3105 29.5925 20.3814Z" fill="#F5F5F5"/>
<path d="M33.6603 20.3814L33.4777 20.9292L32.9003 20.9335C32.8256 20.934 32.7946 21.0295 32.8547 21.0739L33.3192 21.4169L33.145 21.9674C33.1225 22.0386 33.2036 22.0976 33.2645 22.0541L33.7342 21.7184L34.204 22.0541C34.2648 22.0976 34.3458 22.0386 34.3235 21.9674L34.1492 21.4169L34.6137 21.0739C34.6738 21.0295 34.6428 20.934 34.5681 20.9335L33.9907 20.9292L33.8081 20.3814C33.7842 20.3105 33.684 20.3105 33.6603 20.3814Z" fill="#F5F5F5"/>
<path d="M29.5925 12.7881L29.4098 13.3359L28.8325 13.3403C28.7577 13.3408 28.7267 13.4363 28.7868 13.4806L29.2512 13.8236L29.077 14.3741C29.0545 14.4454 29.1356 14.5044 29.1965 14.4609L29.6662 14.1251L30.136 14.4609C30.1968 14.5044 30.2778 14.4454 30.2555 14.3741L30.0812 13.8236L30.5456 13.4806C30.6057 13.4363 30.5747 13.3408 30.5 13.3403L29.9226 13.3359L29.74 12.7881C29.7165 12.7173 29.6161 12.7173 29.5925 12.7881Z" fill="#F5F5F5"/>
<path d="M33.6603 12.7881L33.4777 13.3359L32.9003 13.3403C32.8256 13.3408 32.7946 13.4363 32.8547 13.4806L33.3192 13.8236L33.145 14.3741C33.1225 14.4454 33.2036 14.5044 33.2645 14.4609L33.7342 14.1251L34.204 14.4609C34.2648 14.5044 34.3458 14.4454 34.3235 14.3741L34.1492 13.8236L34.6137 13.4806C34.6738 13.4363 34.6428 13.3408 34.5681 13.3403L33.9907 13.3359L33.8081 12.7881C33.7842 12.7173 33.684 12.7173 33.6603 12.7881Z" fill="#F5F5F5"/>
</svg>
