<svg width="54" height="54" viewBox="0 0 54 54" fill="none" xmlns="http://www.w3.org/2000/svg">
<path d="M27 38.0001L17.8 47.2001L2.19998 51.7001L6.79998 36.0001L16 26.9001L2.09998 13.1001L13 2.2001L26.9 16.1001L38.6 4.4001C40.1 2.9001 42 2.1001 44.1 2.1001C46.2 2.1001 48.1 2.9001 49.6 4.4001C51.1 5.9001 51.9 7.8001 51.9 9.9001C51.9 12.0001 51.1 13.9001 49.6 15.4001L37.9 27.1001L51.7 41.0001L40.8 51.9001L27 38.0001ZM5.39998 13.1001L40.9 48.6001L48.5 41.0001L44.2 36.7001L40.6 40.3001L38.9 38.6001L42.5 35.0001L39.1 31.6001L35.5 35.2001L33.8 33.5001L37.4 29.9001L34 26.5001L30.4 30.1001L28.7 28.4001L32.3 24.8001L28.9 21.4001L25.3 25.0001L23.6 23.3001L27.2 19.7001L23.8 16.3001L20.2 19.9001L18.5 18.2001L22.1 14.6001L18.7 11.2001L15.1 14.8001L13.4 13.1001L17 9.5001L12.7 5.2001L5.39998 13.1001ZM5.59998 48.3001L14.9 45.6001L8.39998 39.0001L5.59998 48.3001ZM14.2 41.5001L17.2 44.5001L25.3 36.4001L22.3 33.4001L14.2 41.5001ZM9.49998 36.8001L12.5 39.8001L20.6 31.7001L17.6 28.7001L9.49998 36.8001ZM33.2 22.4001L36.2 25.4001L43.5 18.1001L40.5 15.1001L33.2 22.4001ZM28.5 17.7001L31.5 20.7001L38.8 13.4001L35.8 10.4001L28.5 17.7001ZM44 4.5001C42.5 4.5001 41.2 5.1001 40.1 6.1001L37.4 8.8001L45.1 16.5001L47.8 13.8001C48.8 12.8001 49.4 11.4001 49.4 9.9001C49.4 8.4001 48.9 7.1001 47.9 6.1001C46.9 5.0001 45.5 4.5001 44 4.5001Z" fill="white"/>
</svg>
