<svg width="94" height="114" viewBox="0 0 94 114" fill="none" xmlns="http://www.w3.org/2000/svg">
<path opacity="0.3" d="M52.3077 39.4089C58.5425 39.4089 64.1588 40.8686 69.1565 43.7881C74.2038 46.6581 78.1129 50.7404 80.8839 56.0351C83.7045 61.3297 85.1147 67.4408 85.1147 74.3684C85.1147 86.4917 81.453 95.7944 74.1296 102.277C66.8556 108.759 55.821 112 41.0256 112C28.3581 112 18.0162 110.045 10 106.136V82.0877C14.305 84.067 19.1543 85.7 24.5479 86.9865C29.991 88.2731 34.6671 88.9163 38.5762 88.9163C44.0193 88.9163 48.2006 87.7782 51.1201 85.502C54.0396 83.1763 55.4993 79.762 55.4993 75.2591C55.4993 71.1026 54.0148 67.8614 51.0459 65.5358C48.0769 63.2101 43.574 62.0472 37.5371 62.0472C32.9352 62.0472 27.9622 62.9132 22.6181 64.6451L11.8556 59.3009L15.9379 2H77.8408V26.4197H40.8772L39.5412 40.7449C43.4008 40.0027 46.1471 39.6068 47.78 39.5574C49.413 39.4584 50.9222 39.4089 52.3077 39.4089Z" fill="white"/>
</svg>
