<svg width="54" height="54" viewBox="0 0 54 54" fill="none" xmlns="http://www.w3.org/2000/svg">
<path d="M46 42.5C45.7 42.5 45.5 42.4 45.3 42.3C45.1 42.1 44.9 41.8 44.8 41.5C44.7 41.2 44.8 40.9 45 40.6C48 36.7 49.6 31.8 49.6 27C49.6 14.5 39.5 4.4 27 4.4C21.8 4.4 17 6.1 12.9 9.3C12.7 9.5 12.4 9.6 12.2 9.6C12 9.6 11.9 9.6 11.7 9.5C11.3 9.3 11 8.9 11 8.4V3.2C11 2.6 11.5 2 12.2 2C12.8 2 13.4 2.5 13.4 3.2V6.1L13.9 5.8C17.8 3.3 22.4 2 27.1 2C40.9 2 52.1 13.2 52.1 27C52.1 32.3 50.3 37.7 47 42C46.7 42.3 46.4 42.5 46 42.5Z" fill="white"/>
<path d="M41.8 52C41.2 52 40.6 51.5 40.6 50.8V47.9L40.1 48.2C36.2 50.7 31.6 52 26.9 52C13.1 52 1.90002 40.8 1.90002 27C1.90002 21.7 3.7 16.3 7 12C7.2 11.7 7.60002 11.5 7.90002 11.5C8.20002 11.5 8.40001 11.6 8.60001 11.7C9.10001 12.1 9.20002 12.8 8.80002 13.3C5.80002 17.3 4.20001 22.1 4.20001 26.9C4.20001 39.4 14.3 49.5 26.8 49.5C32 49.5 36.8 47.8 40.9 44.6C41.1 44.4 41.4 44.3 41.6 44.3C41.8 44.3 41.9 44.3 42.1 44.4C42.5 44.6 42.8 45 42.8 45.5V50.7C43 51.4 42.5 52 41.8 52Z" fill="white"/>
<path d="M27 46C26.4 46 25.8 45.5 25.8 44.8V40H25.5C22 39.9 19.8 39.4001 18 38.4001C15.3 36.8001 13.9 34 13.9 29.8C13.9 23 21.5 13 26.1 8.20005C26.3 8.00005 26.6 7.80005 27 7.80005C27.3 7.80005 27.6 7.90005 27.9 8.20005C32.4 13 40.1 23 40.1 29.8C40.1 34 38.8 36.8001 36 38.4001C34.2 39.4001 32 39.9 28.5 40H28.2V44.8C28.2 45.5 27.7 46 27 46ZM26.8 11.1C23.7 14.7 16.4 23.8 16.4 29.9C16.4 34.3 18 35.7001 19.3 36.4001C21.1 37.4001 23.6 37.6001 25.6 37.7001H25.9V33.3L20.3 27.7001C20.1 27.5001 20 27.2 20 26.9C20 26.6 20.1 26.3 20.3 26.1C20.5 25.9 20.8 25.8 21.1 25.8C21.4 25.8 21.7 25.9 21.9 26.1L25.8 30V24.4L23.2 21.8C22.7 21.3 22.7 20.6 23.2 20.1C23.4 19.9 23.7 19.8 24 19.8C24.3 19.8 24.6 19.9 24.8 20.1L26.9 22.2L29 20.1C29.2 19.9 29.5 19.8 29.8 19.8C30.1 19.8 30.4 19.9 30.6 20.1C31.1 20.6 31.1 21.3 30.6 21.8L28 24.4V30L31.9 26.1C32.1 25.9 32.4 25.8 32.7 25.8C33 25.8 33.3 25.9 33.5 26.1C33.7 26.3 33.8 26.6 33.8 26.9C33.8 27.2 33.7 27.5001 33.5 27.7001L27.9 33.3V37.7001H28.2C30.2 37.6001 32.7 37.5001 34.5 36.4001C35.7 35.7001 37.4 34.2 37.4 29.9C37.4 23.3 28.7 13.1 27 11.1L26.8 10.8V11.1Z" fill="white"/>
</svg>
