<svg width="23" height="22" viewBox="0 0 23 22" fill="none" xmlns="http://www.w3.org/2000/svg">
<path d="M11.7334 20.3501C16.8973 20.3501 21.0834 16.164 21.0834 11.0001C21.0834 5.83628 16.8973 1.65015 11.7334 1.65015C6.56956 1.65015 2.38342 5.83628 2.38342 11.0001C2.38342 16.164 6.56956 20.3501 11.7334 20.3501Z" fill="#009EE1"/>
<path d="M11.7334 2.6951C16.2984 2.6951 20.0384 6.4351 20.0384 11.0001C20.0384 15.5651 16.2984 19.3051 11.7334 19.3051C7.16837 19.3051 3.42837 15.5651 3.42837 11.0001C3.42837 6.4351 7.16837 2.6951 11.7334 2.6951ZM11.7334 1.1001C6.28837 1.1001 1.83337 5.5551 1.83337 11.0001C1.83337 16.4451 6.28837 20.9001 11.7334 20.9001C17.1784 20.9001 21.6334 16.4451 21.6334 11.0001C21.6334 5.5551 17.1784 1.1001 11.7334 1.1001Z" fill="white"/>
<path d="M10.0284 12.3752L9.86341 14.8502C10.1384 14.8502 10.2484 14.7402 10.3584 14.6302L11.5134 13.5302L13.9334 15.2902C14.3734 15.5652 14.7034 15.4002 14.8134 14.9052L16.4084 7.42517C16.5734 6.76517 16.1884 6.49017 15.7484 6.65517L6.3984 10.2302C5.7384 10.5052 5.79341 10.8352 6.28841 11.0002L8.7084 11.7702L14.2634 8.30517C14.5384 8.14017 14.7584 8.25017 14.5934 8.41517L10.0284 12.3752Z" fill="white"/>
</svg>
