<svg width="74" height="74" viewBox="0 0 74 74" fill="none" xmlns="http://www.w3.org/2000/svg">
<path d="M36.9999 42.3687C34.5332 42.3687 32.1391 41.4256 30.3979 39.6118C30.1077 39.3217 29.9626 39.0315 29.9626 38.6687C29.9626 38.306 30.1077 37.9432 30.3979 37.7256C30.6881 37.4354 30.9783 37.2903 31.3411 37.2903C31.7038 37.2903 32.0666 37.4354 32.2842 37.7256C33.5175 38.9589 35.1862 39.6844 36.9274 39.6844C38.6685 39.6844 40.3372 39.0315 41.5705 37.7256C41.8607 37.4354 42.1509 37.2903 42.5136 37.2903C42.8764 37.2903 43.2391 37.4354 43.4568 37.7256C43.747 38.0158 43.8921 38.306 43.8921 38.6687C43.8921 39.0315 43.747 39.3942 43.4568 39.6118C41.8607 41.4256 39.4666 42.3687 36.9999 42.3687Z" fill="white"/>
<path d="M5.00587 70.3725C4.28038 70.3725 3.62744 69.7196 3.62744 68.9941V63.2627C3.62744 57.6765 7.18234 52.6706 12.4059 50.7843L25.5372 46.0686L24.8118 45.4157C21.4745 42.151 19.6608 37.7255 19.6608 33.0823V17.5569L8.70587 14.4372C8.12548 14.2921 7.69019 13.7118 7.69019 13.1314C7.69019 12.551 8.12548 11.9706 8.70587 11.8255L36.6372 3.69999C36.7098 3.62744 36.8549 3.62744 37 3.62744C37.1451 3.62744 37.2902 3.62744 37.3627 3.69999L65.3667 11.8255C65.947 11.9706 66.3823 12.551 66.3823 13.1314V31.849L66.8176 31.9941C68.9216 32.7196 70.3725 34.751 70.3725 37.0725V41.0627C70.3725 41.7882 69.7196 42.4412 68.9941 42.4412H61.0137C60.2882 42.4412 59.6353 41.7882 59.6353 41.0627V37C59.6353 34.751 61.0863 32.7196 63.1902 31.9216L63.6255 31.7765V14.9451L54.3392 17.6294V29.0196C54.3392 35.4039 52.598 40.8451 49.3333 44.6902C49.1157 44.9078 48.898 45.1255 48.6804 45.4157L48.0274 46.0686L61.5216 50.7843C66.8176 52.6706 70.3725 57.749 70.3725 63.3353V68.9941C70.3725 69.7196 69.7196 70.3725 68.9941 70.3725H5.00587ZM38.3784 61.449V67.6157H67.6157V63.3353C67.6157 58.8372 64.7863 54.847 60.5784 53.3961L50.1314 49.6961L38.3784 61.449ZM13.349 53.3235C9.21372 54.8471 6.3843 58.8372 6.3843 63.2627V67.6157H35.6216V61.5216L23.7235 49.6235L13.349 53.3235ZM26.6255 48.5353L37 58.9098L47.2294 48.6804L45.4157 48.0274L45.1255 48.1725C42.7314 49.551 39.902 50.349 37 50.349C34.0255 50.349 31.1235 49.551 28.5118 48.1L28.2941 47.9549L26.6255 48.5353ZM22.4176 33.0098C22.4176 41.0627 28.947 47.5921 37 47.5921C45.7059 47.5921 51.5823 40.1196 51.5823 29.0921V27.2784L50.7118 27.5686C46.3588 29.3098 41.6431 30.1804 37 30.1804C32.3569 30.1804 27.6412 29.2372 23.2882 27.5686L22.4176 27.2059V33.0098V33.0098ZM65.0039 34.3882C63.5529 34.3882 62.3921 35.549 62.3921 37V39.6118H67.6157V37C67.6157 35.549 66.4549 34.3882 65.0039 34.3882ZM22.4176 24.1588L22.7804 24.3039C27.2059 26.3353 32.0667 27.351 37 27.351C41.8608 27.351 46.7941 26.2627 51.2196 24.3039L51.5823 24.1588V18.3549L37.4353 22.4176C37.2902 22.4176 37.2176 22.4902 37.0725 22.4902C36.9274 22.4902 36.7823 22.4902 36.7098 22.4176L22.5627 18.3549V24.1588H22.4176ZM14.0745 13.0588L36.9274 19.5882L59.9255 13.0588L37 6.45685L14.0745 13.0588Z" fill="#FFE11E"/>
<path d="M66.8176 31.9216L66.3823 31.7765V13.1314C66.3823 12.551 65.947 11.9706 65.3667 11.8255L37.3627 3.69999C37.2902 3.62744 37.1451 3.62744 37 3.62744C36.8549 3.62744 36.7098 3.62744 36.6372 3.69999L8.70587 11.7529C8.12548 11.898 7.69019 12.4784 7.69019 13.0588C7.69019 13.6392 8.12548 14.2196 8.70587 14.3647L19.6608 17.4843V25.8274L22.4176 27.2059L23.2882 27.5686C27.6412 29.3098 32.3569 30.1804 37 30.1804C41.6431 30.1804 46.3588 29.2372 50.7118 27.5686L51.5823 27.2059L54.2667 26.1176L54.3392 26.4078V17.5569L63.698 14.9451V31.849L63.1902 31.9216C61.0137 32.647 59.6353 34.6784 59.6353 37V40.9902C59.6353 41.7157 60.2157 42.3686 61.0137 42.3686H68.9941C69.7196 42.3686 70.3725 41.7157 70.3725 40.9902V37C70.3725 34.751 68.9216 32.7196 66.8176 31.9216ZM51.5823 24.1588L51.2196 24.3039C46.7941 26.3353 41.9333 27.351 37 27.351C32.1392 27.351 27.2059 26.2627 22.7804 24.3039L22.4176 24.1588V18.2823L36.5647 22.3451C36.7098 22.3451 36.7823 22.4176 36.9274 22.4176C37.0725 22.4176 37.2176 22.4176 37.2902 22.3451L51.4372 18.2823V24.1588H51.5823ZM37 19.6608L14.147 13.1314L37 6.45685L59.998 13.1314L37 19.6608ZM67.6157 39.6118H62.3921V37C62.3921 35.549 63.5529 34.3882 65.0039 34.3882C66.4549 34.3882 67.6157 35.549 67.6157 37V39.6118V39.6118Z" fill="white"/>
</svg>
