<svg width="44" height="44" viewBox="0 0 44 44" fill="none" xmlns="http://www.w3.org/2000/svg">
<path d="M22 44C9.86036 44 0 34.1396 0 22C0 9.86036 9.86036 0 22 0C34.1396 0 44 9.86036 44 22C44 34.1396 34.1396 44 22 44Z" fill="url(#paint0_linear_49_3628)"/>
<path d="M28.6397 7.92798H15.3604C11.2973 7.92798 7.92798 11.2478 7.92798 15.3604V28.6397C7.92798 32.7028 11.2478 36.0721 15.3604 36.0721H28.6397C32.7027 36.0721 36.0721 32.7523 36.0721 28.6397V15.3604C36.0226 11.2478 32.7027 7.92798 28.6397 7.92798ZM33.4955 28.6397C33.4955 31.3154 31.3154 33.4955 28.6397 33.4955H15.3604C12.6847 33.4955 10.5046 31.3154 10.5046 28.6397V15.3604C10.5046 12.6847 12.6847 10.5046 15.3604 10.5046H28.6397C31.3154 10.5046 33.4955 12.6847 33.4955 15.3604V28.6397Z" fill="white"/>
<path d="M22 14.3198C17.7883 14.3198 14.3198 17.7387 14.3198 22C14.3198 26.2613 17.7387 29.6802 22 29.6802C26.2117 29.6802 29.6802 26.2613 29.6802 22C29.6802 17.7387 26.2117 14.3198 22 14.3198ZM22 27.1036C19.1757 27.1036 16.8964 24.8243 16.8964 22C16.8964 19.1757 19.1757 16.8964 22 16.8964C24.8243 16.8964 27.1036 19.1757 27.1036 22C27.1036 24.8243 24.8243 27.1036 22 27.1036Z" fill="white"/>
<path d="M29.482 12.9325C28.5901 12.9325 27.8964 13.6262 27.8964 14.5181C27.8964 15.41 28.5901 16.1037 29.482 16.1037C30.3738 16.1037 31.0675 15.41 31.0675 14.5181C31.0675 13.6262 30.3243 12.9325 29.482 12.9325Z" fill="white"/>
<defs>
<linearGradient id="paint0_linear_49_3628" x1="6.42553" y1="37.5596" x2="37.541" y2="6.44422" gradientUnits="userSpaceOnUse">
<stop stop-color="#FEDA77"/>
<stop offset="0.25" stop-color="#F58529"/>
<stop offset="0.5" stop-color="#DD2A7B"/>
<stop offset="0.75" stop-color="#8134AF"/>
<stop offset="1" stop-color="#515BD4"/>
</linearGradient>
</defs>
</svg>
