<svg width="64" height="64" viewBox="0 0 64 64" fill="none" xmlns="http://www.w3.org/2000/svg">
<path d="M63.9999 25.0115H0V12.1379C0 11.5285 0.494124 11.0344 1.1035 11.0344H62.8965C63.5059 11.0344 64 11.5285 64 12.1379L63.9999 25.0115Z" fill="#FF4B55"/>
<path d="M62.8964 52.9655H1.1035C0.494124 52.9655 0 52.4714 0 51.862V38.9885H63.9999V51.862C63.9999 52.4715 63.5058 52.9655 62.8964 52.9655Z" fill="#464655"/>
<path d="M63.9999 25.0114H0V38.9876H63.9999V25.0114Z" fill="#F5F5F5"/>
<path d="M35.5232 29.8213C35.5232 29.2742 34.987 28.8877 34.468 29.0608L33.4926 29.3859L33.2557 27.9554C33.1141 27.1022 32.3828 26.4829 31.5174 26.4829H30.6051L29.6508 27.6574H30.9144L30.5608 29.4039L29.5317 29.0609C29.0126 28.8878 28.4766 29.2743 28.4766 29.8214V35.7558L29.8969 34.3354L29.2277 36.343H28.4767V37.5175H35.5233V36.343H34.7723L34.1031 34.3354L35.5234 35.7558V29.8213H35.5232V29.8213ZM31.4128 36.3428H30.4661L31.1171 34.6041L31.4128 34.9818V36.3428ZM32.5871 36.3428V34.9818L32.8828 34.6041L33.5338 36.3428H32.5871ZM31.9999 34.2141C31.9999 34.2141 30.1832 32.9846 30.2567 30.6909C30.2567 30.6909 31.3762 30.5074 31.9999 29.5164C32.6238 30.5073 33.7433 30.6909 33.7433 30.6909C33.8167 32.9848 31.9999 34.2141 31.9999 34.2141Z" fill="#F0C727"/>
</svg>
