<svg width="64" height="64" viewBox="0 0 64 64" fill="none" xmlns="http://www.w3.org/2000/svg">
<path d="M0 38.9884H63.9999V51.8619C63.9999 52.4713 63.5058 52.9654 62.8964 52.9654H1.1035C0.494124 52.9654 0 52.4713 0 51.8619V38.9884Z" fill="#73AF00"/>
<path d="M1.1035 11.0344H62.8965C63.5059 11.0344 64 11.5285 64 12.1379V25.0114H0V12.1379C0 11.5285 0.494124 11.0344 1.1035 11.0344Z" fill="#82AFFF"/>
<path d="M63.9999 25.0112H0V38.9875H63.9999V25.0112Z" fill="#FF4B55"/>
<path d="M33.5049 36.576C31.0287 36.576 29.0198 34.5671 29.0198 32.0887C29.0198 29.6147 31.0287 27.6015 33.5049 27.6015C34.4263 27.6015 35.2759 27.8847 35.9839 28.3644C36.0923 28.4379 36.2161 28.2952 36.1253 28.2009C35.0671 27.1007 33.5693 26.4294 31.9088 26.4861C29.0558 26.5835 26.6941 28.8707 26.5117 31.7196C26.3028 34.9826 28.8866 37.6943 32.1036 37.6943C33.6881 37.6943 35.1122 37.0319 36.1293 35.9727C36.2191 35.8792 36.0951 35.7389 35.9878 35.8116C35.2791 36.2924 34.4279 36.576 33.5049 36.576Z" fill="#F5F5F5"/>
<path d="M37.4315 29.3263L37.8968 30.6347L39.1511 30.0386C39.2456 29.9936 39.3442 30.0922 39.2992 30.1867L38.7031 31.4409L40.0115 31.9063C40.1101 31.9413 40.1101 32.0808 40.0115 32.1158L38.7031 32.5812L39.2992 33.8354C39.3442 33.9299 39.2456 34.0286 39.1511 33.9836L37.8968 33.3874L37.4315 34.6958C37.3965 34.7944 37.257 34.7944 37.222 34.6958L36.7566 33.3874L35.5023 33.9836C35.4078 34.0286 35.3092 33.9299 35.3542 33.8354L35.9503 32.5812L34.642 32.1158C34.5433 32.0808 34.5433 31.9413 34.642 31.9063L35.9503 31.4409L35.3542 30.1867C35.3092 30.0922 35.4078 29.9936 35.5023 30.0386L36.7566 30.6347L37.222 29.3263C37.2571 29.2278 37.3965 29.2278 37.4315 29.3263Z" fill="#F5F5F5"/>
</svg>
