<svg width="22" height="22" viewBox="0 0 22 22" fill="none" xmlns="http://www.w3.org/2000/svg">
<path d="M18.535 12.2101C18.04 16.2251 15.235 16.5001 14.685 16.6651C14.465 16.7201 12.375 17.2701 9.78995 17.1051C9.78995 17.1051 7.86495 19.5251 7.25995 20.1301C7.03995 20.3501 6.81995 20.2951 6.87495 19.9101C6.87495 19.6351 6.87495 16.6101 6.87495 16.6101C3.02495 15.5101 3.29995 11.3851 3.29995 9.24007C3.35495 7.09507 3.73995 5.33507 4.89495 4.18007C7.58995 1.65007 15.07 2.25507 16.995 4.01507C19.36 6.10507 18.535 11.9901 18.535 12.2101Z" fill="#841FD2"/>
<path d="M18.04 3.02498C15.455 0.604979 6.87499 0.274979 3.84999 3.13498C2.47499 4.56498 1.97999 6.59998 1.92499 9.18498C1.86999 11.77 1.81499 16.555 6.26999 17.875V19.855C6.26999 19.855 6.21499 20.68 6.76499 20.845C7.36999 21.01 7.64499 20.68 9.45999 18.48C12.54 18.755 14.905 18.15 15.18 18.04C15.785 17.82 19.305 17.38 19.855 12.54C20.46 7.58998 19.58 4.45498 18.04 3.02498ZM18.535 12.21C18.04 16.225 15.235 16.5 14.685 16.665C14.465 16.72 12.375 17.27 9.78999 17.105C9.78999 17.105 7.86499 19.525 7.25999 20.13C7.03999 20.35 6.81999 20.295 6.87499 19.91C6.87499 19.635 6.87499 16.61 6.87499 16.61C3.02499 15.51 3.29999 11.385 3.29999 9.23998C3.35499 7.09498 3.73999 5.33498 4.89499 4.17998C7.58999 1.64998 15.07 2.25498 16.995 4.01498C19.36 6.10498 18.535 11.99 18.535 12.21Z" fill="white"/>
<path d="M15.84 10.0099C15.84 10.3399 15.345 10.3399 15.345 10.0099C15.345 6.87487 13.31 5.16987 10.835 5.11487C10.505 5.11487 10.505 4.61987 10.835 4.61987C13.64 4.67487 15.84 6.65487 15.84 10.0099Z" fill="white"/>
<path d="M14.5749 9.51494C14.5749 9.84494 14.0799 9.84494 14.0799 9.51494C14.1349 7.86494 13.1449 6.59994 11.2749 6.43494C10.9449 6.43494 10.9999 5.93994 11.3299 5.93994C13.4749 6.10494 14.6299 7.64494 14.5749 9.51494Z" fill="white"/>
<path d="M15.4551 13.8051C15.0701 14.5201 14.3001 15.3451 13.5301 15.0701C12.7601 14.8501 10.8901 13.8601 9.73506 12.8701C7.26006 10.8351 6.43506 8.14007 6.05006 7.26007C5.77506 6.43507 6.60006 5.66507 7.31506 5.28007C7.64506 5.11507 7.97506 5.17007 8.19506 5.44507C8.41506 5.72007 8.80006 6.10507 9.40506 7.20507C9.62506 7.64507 9.51506 8.03007 9.24006 8.25007L8.80006 8.63507C8.58006 8.80007 8.58006 9.18507 8.58006 9.18507C8.58006 9.18507 9.24006 11.7701 11.7151 12.4301C11.7151 12.4301 12.0451 12.4851 12.2101 12.2101L12.5951 11.7701C12.7601 11.5501 13.2001 11.3851 13.5851 11.6051C14.1351 11.9351 14.8501 12.4301 15.2901 12.8701C15.5651 13.1451 15.6201 13.4751 15.4551 13.8051Z" fill="white"/>
<path d="M13.365 9.07501C13.365 9.40501 12.925 9.40501 12.87 9.07501C12.815 8.25001 12.43 7.81001 11.66 7.75501C11.33 7.75501 11.385 7.26001 11.66 7.26001C12.705 7.37001 13.31 7.97501 13.365 9.07501Z" fill="white"/>
</svg>
