<svg width="74" height="74" viewBox="0 0 74 74" fill="none" xmlns="http://www.w3.org/2000/svg">
<path d="M49.7687 52.598H46.9393V49.7686C46.9393 48.9706 46.2863 48.3176 45.4883 48.3176C44.6903 48.3176 44.0373 48.9706 44.0373 49.7686V52.598H41.2079C40.4099 52.598 39.757 53.251 39.757 54.049C39.757 54.847 40.4099 55.5 41.2079 55.5H44.0373V58.3294C44.0373 59.1274 44.6903 59.7804 45.4883 59.7804C46.2863 59.7804 46.9393 59.1274 46.9393 58.3294V55.5H49.7687C51.655 55.4274 51.655 52.6706 49.7687 52.598Z" fill="#FFE11E"/>
<path d="M49.7688 29.1648H39.104C37.2178 29.2373 37.2178 31.9217 39.104 32.0668H49.7688C50.5668 32.0668 51.2198 31.4138 51.2198 30.6158C51.2198 29.8177 50.5668 29.1648 49.7688 29.1648Z" fill="#FFE11E"/>
<path d="M39.1041 15.0177H49.7687C51.655 14.9451 51.655 12.2608 49.7687 12.1157H39.1041C38.306 12.1157 37.6531 12.7687 37.6531 13.5667C37.6531 14.3647 38.306 15.0177 39.1041 15.0177Z" fill="#FFE11E"/>
<path d="M58.257 3.62744C58.1119 3.62744 30.6158 3.62744 30.4707 3.62744C30.1079 3.62744 29.8178 3.77254 29.6001 4.06274L14.7276 18.9353C14.655 19.0078 14.5099 19.1529 14.4373 19.298C14.3648 19.5157 14.2922 19.7333 14.2922 19.951V68.9216C14.2922 69.7196 14.9452 70.3725 15.7432 70.3725H58.3295C59.1276 70.3725 59.7805 69.7196 59.7805 68.9216V5.07842C59.708 4.28038 59.055 3.62744 58.257 3.62744ZM29.1648 8.56077V18.5725H19.153L29.1648 8.56077ZM56.806 67.4706H17.1217V21.402H30.6158C31.4138 21.402 32.0668 20.749 32.0668 19.951V6.5294H56.8786V67.4706H56.806Z" fill="#1A12E6"/>
<path d="M31.3412 47.0842C30.8333 45.996 29.2373 45.996 28.7295 47.0842L22.853 59.8529C22.4903 60.5784 22.853 61.449 23.5785 61.7392C24.304 62.1019 25.1746 61.7392 25.4648 61.0137L26.0452 59.7078H34.0255L34.6059 61.0137C35.4765 62.6823 37.9431 61.5941 37.2176 59.8529L31.3412 47.0842ZM27.4236 56.8784L30.0353 51.0744L32.6471 56.8784H27.4236Z" fill="#1A12E6"/>
<path d="M24.2315 32.0666H30.6158C32.5021 31.9941 32.5021 29.3098 30.6158 29.1647H24.2315C23.4335 29.1647 22.7805 29.8176 22.7805 30.6157C22.7805 31.4137 23.4335 32.0666 24.2315 32.0666Z" fill="#1A12E6"/>
<path d="M39.1041 23.5058H49.7687C51.655 23.4333 51.655 20.749 49.7687 20.6039H39.1041C38.306 20.6039 37.6531 21.2568 37.6531 22.0549C37.6531 22.9255 38.306 23.5058 39.1041 23.5058Z" fill="#1A12E6"/>
<path d="M39.1041 40.5549H49.7687C51.655 40.4824 51.655 37.7981 49.7687 37.653H39.1041C38.306 37.653 37.6531 38.3059 37.6531 39.1039C37.6531 39.902 38.306 40.5549 39.1041 40.5549Z" fill="#1A12E6"/>
<path d="M24.2315 40.5549H30.6158C32.5021 40.4824 32.5021 37.7981 30.6158 37.653H24.2315C23.4335 37.653 22.7805 38.3059 22.7805 39.1039C22.7805 39.902 23.4335 40.5549 24.2315 40.5549Z" fill="#1A12E6"/>
</svg>
