<svg width="64" height="64" viewBox="0 0 64 64" fill="none" xmlns="http://www.w3.org/2000/svg">
<path d="M62.8964 52.9655H1.1035C0.494124 52.9655 0 52.4714 0 51.862V12.1379C0 11.5285 0.494124 11.0344 1.1035 11.0344H62.8965C63.5059 11.0344 64 11.5285 64 12.1379V51.862C63.9999 52.4715 63.5058 52.9655 62.8964 52.9655Z" fill="#41479B"/>
<path d="M63.9999 18.7588H0V45.2412H63.9999V18.7588Z" fill="#F5F5F5"/>
<path d="M37.7336 32.0001L40.6002 27.035H34.8671L31.9999 22.0691L29.133 27.035H23.3998L26.2665 32.0001L23.3998 36.9652H29.133L31.9999 41.9311L34.8669 36.9652H40.6001L37.7336 32.0001ZM37.7877 28.6588L36.7961 30.3763L35.8044 28.6588H37.7877ZM35.8586 32.0001L33.9294 35.3413H30.0703L28.1413 32.0001L30.0705 28.6588H33.9296L35.8586 32.0001ZM31.9999 25.3168L32.9919 27.0351H31.008L31.9999 25.3168ZM26.2122 28.6588H28.1953L27.2037 30.3763L26.2122 28.6588ZM26.2122 35.3413L27.2038 33.6238L28.1955 35.3413H26.2122ZM31.9999 38.6833L31.008 36.9651H32.9919L31.9999 38.6833ZM36.7961 33.6238L37.7877 35.3413H35.8046L36.7961 33.6238Z" fill="#41479B"/>
</svg>
