<svg width="94" height="114" viewBox="0 0 94 114" fill="none" xmlns="http://www.w3.org/2000/svg">
<path opacity="0.3" d="M8 65.3067C8 50.3766 10.1224 38.3007 14.3673 29.0792C18.6609 19.8088 24.955 12.978 33.2495 8.58683C41.5928 4.19561 51.8634 2 64.0612 2C68.4036 2 73.4779 2.41473 79.2841 3.24418V25.8589C74.405 24.9319 69.1111 24.4684 63.4025 24.4684C53.7419 24.4684 46.5451 26.5908 41.8124 30.8357C37.0796 35.0805 34.4937 42.0089 34.0546 51.6208H34.9328C39.324 43.3262 46.3744 39.179 56.0838 39.179C65.5981 39.179 72.9656 42.2528 78.1863 48.4005C83.4558 54.4994 86.0905 63.0135 86.0905 73.9428C86.0905 85.7015 82.7727 94.9962 76.1371 101.827C69.5014 108.609 60.2311 112 48.326 112C35.6891 112 25.8088 107.902 18.6853 99.7046C11.5618 91.5077 8 80.0417 8 65.3067ZM47.6673 89.0925C50.7412 89.0925 53.2295 87.9459 55.1324 85.6527C57.0841 83.3107 58.0599 79.6026 58.0599 74.5283C58.0599 65.8434 54.6933 61.501 47.9601 61.501C44.6423 61.501 41.9344 62.6232 39.8363 64.8676C37.7871 67.112 36.7625 69.8443 36.7625 73.0645C36.7625 77.7485 37.7627 81.603 39.7631 84.6281C41.7636 87.6043 44.3983 89.0925 47.6673 89.0925Z" fill="white"/>
</svg>
