<svg id="logo" width="48" height="52" viewBox="0 0 48 52" fill="none" xmlns="http://www.w3.org/2000/svg">
<path opacity="0.8" fill-rule="evenodd" clip-rule="evenodd" d="M36.2142 52.0001C34.1095 51.6291 32.0666 51.2581 30.0238 50.8253V16.5709L27.6714 16.3854C14.5476 15.2106 4.76664 10.9442 0.866638 3.21533C10.5238 10.2023 23.9571 11.0061 36.2142 11.5625V52.0001Z" fill="#1A12E6"/>
<path fill-rule="evenodd" clip-rule="evenodd" d="M24.1429 51.9999C20.9238 51.4434 17.8286 50.8251 14.7333 49.8976C14.6714 43.6527 14.9809 35.6764 20.4905 31.3483C17.6429 31.3483 14.0524 34.5635 11.3286 34.5635C8.72857 34.5635 4.76667 31.4719 2.04286 31.4719C6.74762 35.12 7.61428 41.4886 7.67619 47.177C5.07619 45.9404 2.53809 44.271 0 42.1687V10.573C5.75714 16.076 14.6095 19.4767 24.1429 20.3423V51.9999ZM11.3905 27.7002C9.96666 27.7002 8.85238 28.8132 8.85238 30.2353C8.85238 31.6574 9.96666 32.7704 11.3905 32.7704C12.8143 32.7704 13.9286 31.6574 13.9286 30.2353C13.9286 28.8132 12.7524 27.7002 11.3905 27.7002ZM11.3905 34.9963H11.2667H11.2048L11.2667 35.12L11.3905 34.9963Z" fill="#1A12E6"/>
<path opacity="0.7" fill-rule="evenodd" clip-rule="evenodd" d="M47.2952 47.4863C45.1905 47.1153 43.1476 46.7443 41.1048 46.3115V6.61593C34.2952 7.91438 8.60478 8.28537 1.42383 0.680142C16.281 5.00832 39.2476 2.10226 47.419 0L47.2952 47.4863Z" fill="#1A12E6"/>
</svg>
